<?xml version="1.0" encoding="utf-8"?>
<!-- Generator: Adobe Illustrator 26.0.3, SVG Export Plug-In . SVG Version: 6.00 Build 0)  -->
<svg version="1.0" id="katman_1" xmlns="http://www.w3.org/2000/svg" xmlns:xlink="http://www.w3.org/1999/xlink" x="0px" y="0px"
	 viewBox="0 0 800 600" style="enable-background:new 0 0 800 600;" xml:space="preserve">
<style type="text/css">
	.st0{fill:#151E2A;}
	.st1{fill:#5F73F4;}
	.st2{fill-rule:evenodd;clip-rule:evenodd;fill:#FFFFFF;}
</style>
<path class="st0" d="M188.9,310.5c-5.2,9.6-15.3,16.1-26.9,16.1c-16.8,0-30.6-13.7-30.6-30.6c0-16.8,13.7-30.6,30.6-30.6
	c11.6,0,21.7,6.5,26.9,16.1l15.2-8.2c-8.1-15-23.9-25.1-42.1-25.1c-26.4,0-47.8,21.4-47.8,47.8c0,26.4,21.4,47.8,47.8,47.8
	c18.2,0,34-10.2,42.1-25.1L188.9,310.5z"/>
<path class="st1" d="M96.7,296c0-36,29.2-65.2,65.2-65.2v130.4C126,361.2,96.7,332.1,96.7,296z"/>
<path class="st2" d="M162,326.6v17.2c0,0,0,0,0,0c-26.4,0-47.8-21.4-47.8-47.8c0-26.4,21.4-47.8,47.8-47.8c0,0,0,0,0,0v17.2
	c0,0,0,0,0,0c-16.8,0-30.6,13.7-30.6,30.6C131.4,312.9,145.1,326.6,162,326.6C162,326.6,162,326.6,162,326.6z"/>
<path class="st0" d="M215.9,246h14.2v96h-14.2V246z"/>
<path class="st0" d="M277.8,330.7c7.9,0,13.8-3.6,17-8.2l11.7,6.8c-6.1,8.9-15.9,14.3-28.8,14.3c-21.7,0-35.8-14.9-35.8-34.6
	c0-19.5,14.1-34.6,34.7-34.6c19.6,0,33,15.8,33,34.7c0,2-0.3,4.1-0.5,5.9h-52.3C259,325.5,267.3,330.7,277.8,330.7z M295.3,303.6
	c-2-11.3-10.3-16.2-18.8-16.2c-10.7,0-17.9,6.3-19.9,16.2H295.3z"/>
<path class="st0" d="M388,276.3V342h-14.2v-9.5c-5,7-12.8,11.2-23,11.2c-17.9,0-32.7-15.1-32.7-34.6c0-19.6,14.9-34.6,32.7-34.6
	c10.3,0,18,4.2,23,11v-9.3H388z M373.8,309.2c0-12.2-8.9-21-20.8-21c-11.8,0-20.8,8.8-20.8,21c0,12.2,8.9,21,20.8,21
	C364.8,330.2,373.8,321.4,373.8,309.2z"/>
<path class="st0" d="M437.8,275.1v15.4c-9.3-0.7-20.3,3.7-20.3,18.4V342h-14.2v-65.8h14.2v11C421.5,278.4,429.5,275.1,437.8,275.1z"
	/>
<path class="st0" d="M519.5,309.2c0,19.5-15,34.6-33.3,34.6c-11.2,0-19.6-5-24.9-13v37.6h-11.4v-92.1h11.4v11.3
	c5.3-8,13.7-13,24.9-13C504.5,274.6,519.5,289.7,519.5,309.2z M508,309.2c0-13.4-10.1-23.5-23.3-23.5c-13.3,0-23.4,10.1-23.4,23.5
	c0,13.4,10.1,23.5,23.4,23.5C497.9,332.7,508,322.6,508,309.2z"/>
<path class="st0" d="M529.5,309.2c0-19.5,15.4-34.6,34.6-34.6c19.2,0,34.7,15.1,34.7,34.6c0,19.5-15.5,34.6-34.7,34.6
	S529.5,328.6,529.5,309.2z M587.4,309.2c0-13.3-10.1-23.4-23.3-23.4c-13,0-23.1,10.1-23.1,23.4c0,13.3,10.1,23.4,23.1,23.4
	C577.2,332.6,587.4,322.4,587.4,309.2z"/>
<path class="st0" d="M608.7,309.2c0-19.5,15.4-34.6,34.6-34.6c19.2,0,34.7,15.1,34.7,34.6c0,19.5-15.5,34.6-34.7,34.6
	C624,343.8,608.7,328.6,608.7,309.2z M666.5,309.2c0-13.3-10.1-23.4-23.3-23.4c-13,0-23.1,10.1-23.1,23.4
	c0,13.3,10.1,23.4,23.1,23.4C656.4,332.6,666.5,322.4,666.5,309.2z"/>
<path class="st0" d="M691.5,246h11.4v96h-11.4V246z"/>
</svg>
