<svg width="93" height="17" viewBox="0 0 93 17" fill="none" xmlns="http://www.w3.org/2000/svg">
<g clip-path="url(#clip0_7402_25703)">
<path d="M0.5 2.45703V4.46715H8.36178C8.69347 4.46715 8.93791 4.29666 9.09298 3.95672L9.65373 2.45808H0.5V2.45703ZM0.5 7.06664V13.6232H2.75736V9.41246C2.75736 9.29566 2.79639 9.20091 2.87444 9.12619C2.95147 9.05148 3.04288 9.01362 3.1466 9.01362H6.30671C6.63844 9.01362 6.88284 8.83362 7.03796 8.47162L7.52062 7.06664H0.5Z" fill="white"/>
<path d="M19.0212 3.25476C18.7727 2.72329 18.3886 2.45703 17.8699 2.45703H16.0952L11.6113 13.6232H13.9622L17.3554 4.72183L20.687 13.6232H23.1313L19.0212 3.25476Z" fill="white"/>
<path d="M28.9439 11.5815V3.25476C28.9439 3.0306 28.8689 2.84327 28.7189 2.68751C28.569 2.53386 28.3841 2.45703 28.1664 2.45703H26.6875V13.6232H33.5993C33.9105 13.6232 34.1498 13.4537 34.3161 13.1138L34.9067 11.5815H28.9439Z" fill="white"/>
<path d="M46.6282 10.7147C46.4731 10.7147 46.3166 10.7683 46.1615 10.8746C45.4869 11.3956 44.7291 11.6555 43.888 11.6555C42.8712 11.6555 42.025 11.3071 41.3502 10.6105C40.6755 9.91376 40.3386 9.06132 40.3386 8.04994C40.3386 7.03856 40.6734 6.14083 41.342 5.44941C42.0106 4.75794 42.8394 4.41171 43.8243 4.41171C44.687 4.41171 45.4642 4.68852 46.1598 5.24101C46.3149 5.34732 46.4709 5.39994 46.626 5.39994C46.7811 5.39994 46.9331 5.35256 47.078 5.25683L48.3389 4.36331C47.842 3.74659 47.1931 3.24669 46.394 2.86361C45.594 2.48158 44.7383 2.29004 43.8243 2.29004C42.7562 2.29004 41.7806 2.54262 40.8973 3.04673C40.0161 3.55189 39.3147 4.23807 38.7961 5.10527C38.2774 5.97247 38.0176 6.95225 38.0176 8.04781C38.0176 9.07919 38.2641 10.0316 38.756 10.9041C39.249 11.7755 39.9309 12.4743 40.8028 13.0015C41.6747 13.5278 42.6812 13.7909 43.8222 13.7909C44.6849 13.7909 45.5118 13.6046 46.3055 13.232C47.0993 12.8595 47.7606 12.3607 48.2909 11.7323L47.0758 10.8557C46.9309 10.7599 46.7811 10.7115 46.6238 10.7115" fill="white"/>
<path d="M62.6359 5.05642C62.107 4.19555 61.4034 3.51779 60.5274 3.02316C59.9256 2.68428 59.2856 2.46116 58.6092 2.35487V4.5218C59.1985 4.67651 59.7079 4.98487 60.1381 5.44687C60.7861 6.14358 61.111 7.00865 61.111 8.039C61.111 9.06931 60.7861 9.93651 60.1381 10.6322C59.7079 11.0942 59.1985 11.4036 58.6092 11.5583V13.7294C59.3332 13.62 60.0016 13.3832 60.6128 13.018C61.4834 12.497 62.1719 11.8003 62.675 10.9279C63.1781 10.0565 63.4296 9.09349 63.4296 8.039C63.4296 6.91291 63.1648 5.91838 62.6359 5.05642ZM52.6492 5.1522C52.1461 6.02465 51.8945 6.98656 51.8945 8.039C51.8945 9.16718 52.1616 10.1649 52.6963 11.031C53.2305 11.8982 53.9363 12.576 54.8132 13.0643C55.415 13.4 56.0488 13.621 56.7163 13.7262V11.5551C56.1421 11.4004 55.6368 11.0921 55.2025 10.6322C54.543 9.93651 54.2132 9.0714 54.2132 8.039C54.2132 7.00656 54.543 6.13096 55.2025 5.43949C55.6368 4.98278 56.1421 4.67758 56.7163 4.52287V2.34961C55.9941 2.458 55.3265 2.6948 54.7123 3.06209C53.8408 3.58409 53.1536 4.2808 52.6492 5.1522Z" fill="white"/>
<path d="M76.667 2.45703H74.5501V10.4796C73.4595 8.85996 70.9946 5.1649 69.8279 3.41473C69.4306 2.81906 68.7724 2.46124 68.0679 2.45914L66.9844 2.45703V13.6232H69.1173V6.15841L73.2902 12.6392C73.6857 13.2538 74.3564 13.6232 75.075 13.6232H76.6679V2.45703H76.667Z" fill="white"/>
<path d="M82.8824 2.48535H80.2246L84.0882 8.11789L80.3468 13.5947H83.0055L86.6824 8.11896L82.8824 2.48535ZM87.9055 2.48535L86.3353 4.78385L87.6428 6.68869L90.5482 2.48535H87.9055ZM87.6437 9.39238L86.3331 11.3025L87.9064 13.5957H90.5491L87.6437 9.3934V9.39238Z" fill="white"/>
</g>
<defs>
<clipPath id="clip0_7402_25703">
<rect width="92" height="16" fill="white" transform="translate(0.5 0.0400391)"/>
</clipPath>
</defs>
</svg>
