<svg width="1500" height="250" viewBox="0 0 1500 250" fill="none" xmlns="http://www.w3.org/2000/svg">
<g clip-path="url(#clip0_7618_59705)">
<path d="M304 0C373.024 0 429 55.976 429 125C429 194.024 373.024 250 304 250C234.976 250 179 194.024 179 125C179 55.976 234.976 0 304 0Z" fill="#0C8F70"/>
<path d="M286.307 174.008C258.113 154.413 254.69 113.151 283.473 92.7168C273.513 93.1609 267.097 96.1447 265.454 97.0673C256.512 110.465 254.446 128.304 259.863 143.562C265.54 160.235 279.454 173.875 296.433 179.919C292.873 178.268 289.946 176.603 286.307 174.014V174.008Z" fill="white"/>
<path d="M274.678 147.632C272.74 140.902 272.302 131.639 275.094 123.736H268.305C266.726 136.655 271.125 151.337 279.758 159.858C279.758 159.858 276.701 155.077 274.678 147.632Z" fill="white"/>
<path d="M263.883 55.236C223.511 83.6625 218.531 142.605 253.529 176.762C281.644 205.973 331.963 209.56 364.09 184.714C316.491 217.477 246.848 190.341 239.614 133.355C233.723 92.1069 267.945 53.0157 311.64 54.3548L322.691 39.4025C301.866 37.3626 280.611 43.1423 263.883 55.236Z" fill="white"/>
<path d="M309.438 57.3633C275.201 57.6478 245.88 85.1514 243.993 117.998C239.579 161.627 284.107 199.303 328.232 190.921C283.769 196.902 241 154.355 254.376 111.636C259.938 91.7918 277.447 75.5905 298.48 72.2947L309.431 57.3633H309.438Z" fill="white"/>
<path d="M387.687 170.648C337.332 238.866 226.211 205.736 225.573 121.482C225.594 95.0192 238.92 69.1389 261.029 53.5067V39.6992C211.271 70.8804 201.698 140.126 242.544 182.006C283.526 224.684 353.378 219.203 388.433 172.431L387.679 170.648H387.687Z" fill="white"/>
</g>
<path d="M559.78 62.54V75.86H505.24V118.16H549.52V131.48H505.24V188H488.86V62.54H559.78ZM572.483 138.32C572.483 128.24 574.523 119.42 578.603 111.86C582.683 104.18 588.263 98.24 595.343 94.04C602.543 89.84 610.523 87.74 619.283 87.74C627.923 87.74 635.423 89.6 641.783 93.32C648.143 97.04 652.883 101.72 656.003 107.36V89.36H672.563V188H656.003V169.64C652.763 175.4 647.903 180.2 641.423 184.04C635.063 187.76 627.623 189.62 619.103 189.62C610.343 189.62 602.423 187.46 595.343 183.14C588.263 178.82 582.683 172.76 578.603 164.96C574.523 157.16 572.483 148.28 572.483 138.32ZM656.003 138.5C656.003 131.06 654.503 124.58 651.503 119.06C648.503 113.54 644.423 109.34 639.263 106.46C634.223 103.46 628.643 101.96 622.523 101.96C616.403 101.96 610.823 103.4 605.783 106.28C600.743 109.16 596.723 113.36 593.723 118.88C590.723 124.4 589.223 130.88 589.223 138.32C589.223 145.88 590.723 152.48 593.723 158.12C596.723 163.64 600.743 167.9 605.783 170.9C610.823 173.78 616.403 175.22 622.523 175.22C628.643 175.22 634.223 173.78 639.263 170.9C644.423 167.9 648.503 163.64 651.503 158.12C654.503 152.48 656.003 145.94 656.003 138.5ZM734.204 189.62C726.644 189.62 719.864 188.36 713.864 185.84C707.864 183.2 703.124 179.6 699.644 175.04C696.164 170.36 694.244 165.02 693.884 159.02H710.804C711.284 163.94 713.564 167.96 717.644 171.08C721.844 174.2 727.304 175.76 734.024 175.76C740.264 175.76 745.184 174.38 748.784 171.62C752.384 168.86 754.184 165.38 754.184 161.18C754.184 156.86 752.264 153.68 748.424 151.64C744.584 149.48 738.644 147.38 730.604 145.34C723.284 143.42 717.284 141.5 712.604 139.58C708.044 137.54 704.084 134.6 700.724 130.76C697.484 126.8 695.864 121.64 695.864 115.28C695.864 110.24 697.364 105.62 700.364 101.42C703.364 97.22 707.624 93.92 713.144 91.52C718.664 89 724.964 87.74 732.044 87.74C742.964 87.74 751.784 90.5 758.504 96.02C765.224 101.54 768.824 109.1 769.304 118.7H752.924C752.564 113.54 750.464 109.4 746.624 106.28C742.904 103.16 737.864 101.6 731.504 101.6C725.624 101.6 720.944 102.86 717.464 105.38C713.984 107.9 712.244 111.2 712.244 115.28C712.244 118.52 713.264 121.22 715.304 123.38C717.464 125.42 720.104 127.1 723.224 128.42C726.464 129.62 730.904 131 736.544 132.56C743.624 134.48 749.384 136.4 753.824 138.32C758.264 140.12 762.044 142.88 765.164 146.6C768.404 150.32 770.084 155.18 770.204 161.18C770.204 166.58 768.704 171.44 765.704 175.76C762.704 180.08 758.444 183.5 752.924 186.02C747.524 188.42 741.284 189.62 734.204 189.62ZM786.247 138.32C786.247 128.24 788.287 119.42 792.367 111.86C796.447 104.18 802.027 98.24 809.107 94.04C816.307 89.84 824.287 87.74 833.047 87.74C841.687 87.74 849.187 89.6 855.547 93.32C861.907 97.04 866.647 101.72 869.767 107.36V89.36H886.327V188H869.767V169.64C866.527 175.4 861.667 180.2 855.187 184.04C848.827 187.76 841.387 189.62 832.867 189.62C824.107 189.62 816.187 187.46 809.107 183.14C802.027 178.82 796.447 172.76 792.367 164.96C788.287 157.16 786.247 148.28 786.247 138.32ZM869.767 138.5C869.767 131.06 868.267 124.58 865.267 119.06C862.267 113.54 858.187 109.34 853.027 106.46C847.987 103.46 842.407 101.96 836.287 101.96C830.167 101.96 824.587 103.4 819.547 106.28C814.507 109.16 810.487 113.36 807.487 118.88C804.487 124.4 802.987 130.88 802.987 138.32C802.987 145.88 804.487 152.48 807.487 158.12C810.487 163.64 814.507 167.9 819.547 170.9C824.587 173.78 830.167 175.22 836.287 175.22C842.407 175.22 847.987 173.78 853.027 170.9C858.187 167.9 862.267 163.64 865.267 158.12C868.267 152.48 869.767 145.94 869.767 138.5ZM961.107 87.56C973.107 87.56 982.827 91.22 990.267 98.54C997.707 105.74 1001.43 116.18 1001.43 129.86V188H985.227V132.2C985.227 122.36 982.767 114.86 977.847 109.7C972.927 104.42 966.207 101.78 957.687 101.78C949.047 101.78 942.147 104.48 936.987 109.88C931.947 115.28 929.427 123.14 929.427 133.46V188H913.047V89.36H929.427V103.4C932.667 98.36 937.047 94.46 942.567 91.7C948.207 88.94 954.387 87.56 961.107 87.56ZM1021.1 138.32C1021.1 128.24 1023.14 119.42 1027.22 111.86C1031.3 104.18 1036.88 98.24 1043.96 94.04C1051.16 89.84 1059.14 87.74 1067.9 87.74C1076.54 87.74 1084.04 89.6 1090.4 93.32C1096.76 97.04 1101.5 101.72 1104.62 107.36V89.36H1121.18V188H1104.62V169.64C1101.38 175.4 1096.52 180.2 1090.04 184.04C1083.68 187.76 1076.24 189.62 1067.72 189.62C1058.96 189.62 1051.04 187.46 1043.96 183.14C1036.88 178.82 1031.3 172.76 1027.22 164.96C1023.14 157.16 1021.1 148.28 1021.1 138.32ZM1104.62 138.5C1104.62 131.06 1103.12 124.58 1100.12 119.06C1097.12 113.54 1093.04 109.34 1087.88 106.46C1082.84 103.46 1077.26 101.96 1071.14 101.96C1065.02 101.96 1059.44 103.4 1054.4 106.28C1049.36 109.16 1045.34 113.36 1042.34 118.88C1039.34 124.4 1037.84 130.88 1037.84 138.32C1037.84 145.88 1039.34 152.48 1042.34 158.12C1045.34 163.64 1049.36 167.9 1054.4 170.9C1059.44 173.78 1065.02 175.22 1071.14 175.22C1077.26 175.22 1082.84 173.78 1087.88 170.9C1093.04 167.9 1097.12 163.64 1100.12 158.12C1103.12 152.48 1104.62 145.94 1104.62 138.5ZM1164.28 105.38C1167.16 99.74 1171.24 95.36 1176.52 92.24C1181.92 89.12 1188.46 87.56 1196.14 87.56V104.48H1191.82C1173.46 104.48 1164.28 114.44 1164.28 134.36V188H1147.9V89.36H1164.28V105.38ZM1207.97 138.32C1207.97 128.24 1210.01 119.42 1214.09 111.86C1218.17 104.18 1223.75 98.24 1230.83 94.04C1238.03 89.84 1246.01 87.74 1254.77 87.74C1263.41 87.74 1270.91 89.6 1277.27 93.32C1283.63 97.04 1288.37 101.72 1291.49 107.36V89.36H1308.05V188H1291.49V169.64C1288.25 175.4 1283.39 180.2 1276.91 184.04C1270.55 187.76 1263.11 189.62 1254.59 189.62C1245.83 189.62 1237.91 187.46 1230.83 183.14C1223.75 178.82 1218.17 172.76 1214.09 164.96C1210.01 157.16 1207.97 148.28 1207.97 138.32ZM1291.49 138.5C1291.49 131.06 1289.99 124.58 1286.99 119.06C1283.99 113.54 1279.91 109.34 1274.75 106.46C1269.71 103.46 1264.13 101.96 1258.01 101.96C1251.89 101.96 1246.31 103.4 1241.27 106.28C1236.23 109.16 1232.21 113.36 1229.21 118.88C1226.21 124.4 1224.71 130.88 1224.71 138.32C1224.71 145.88 1226.21 152.48 1229.21 158.12C1232.21 163.64 1236.23 167.9 1241.27 170.9C1246.31 173.78 1251.89 175.22 1258.01 175.22C1264.13 175.22 1269.71 173.78 1274.75 170.9C1279.91 167.9 1283.99 163.64 1286.99 158.12C1289.99 152.48 1291.49 145.94 1291.49 138.5Z" fill="#242926"/>
<defs>
<clipPath id="clip0_7618_59705">
<rect width="250" height="250" fill="white" transform="translate(178)"/>
</clipPath>
</defs>
</svg>
