<svg width="1500" height="250" viewBox="0 0 1500 250" fill="none" xmlns="http://www.w3.org/2000/svg">
<g clip-path="url(#clip0_7618_59706)">
<path d="M445 0C514.024 0 570 55.976 570 125C570 194.024 514.024 250 445 250C375.976 250 320 194.024 320 125C320 55.976 375.976 0 445 0Z" fill="#111111"/>
<path fill-rule="evenodd" clip-rule="evenodd" d="M508.787 143.525C511.444 146.525 512.894 149.763 512.894 153.144C512.894 168.669 482.306 181.25 444.575 181.25C406.838 181.25 376.25 168.669 376.25 153.144C376.25 149.769 377.7 146.525 380.362 143.519C389.906 154.306 415.05 162.013 444.575 162.013C456.431 162.013 467.588 160.762 477.313 158.575V165.594C477.279 166.245 477.379 166.896 477.605 167.507C477.831 168.118 478.179 168.677 478.628 169.15C479.077 169.622 479.618 169.998 480.217 170.255C480.816 170.512 481.461 170.645 482.112 170.645C482.764 170.645 483.409 170.512 484.008 170.255C484.607 169.998 485.148 169.622 485.597 169.15C486.046 168.677 486.394 168.118 486.62 167.507C486.846 166.896 486.946 166.245 486.912 165.594V155.956C496.756 152.75 504.412 148.462 508.787 143.519V143.525ZM380.556 115.056C389.606 125.719 413.775 133.45 442.469 133.869V139.531C442.469 142.819 444.631 145.481 447.3 145.481C449.969 145.481 452.131 142.819 452.131 139.531V133.738C459.514 133.436 466.863 132.584 474.119 131.187C474.719 131.187 477.919 131.406 478 135.919V148.588C468.294 150.775 457.156 152.025 445.312 152.025C411.706 152.025 383.794 141.994 378.163 128.8C377.478 127.252 377.116 125.58 377.1 123.887C377.1 120.806 378.325 117.838 380.556 115.056ZM509.887 115.15C512.381 118.062 513.75 121.187 513.75 124.45C513.75 126.125 513.375 127.762 512.687 129.362C509.694 136.3 500.512 142.35 487.544 146.544V132.712L487.556 132.7L487.55 132.662V131.187C487.669 129.9 488.175 128.144 489.994 127.444C492.369 126.606 494.619 125.706 496.656 124.681C505.2 120.388 508.506 116.856 509.887 115.15ZM444.575 68.75C482.306 68.75 512.894 81.3312 512.894 96.8562C512.894 98.5312 512.519 100.169 511.838 101.762C506.625 113.95 482.35 123.419 452.131 124.787C452.131 118.994 452.25 112.819 454.394 108.912C456.913 104.35 466.219 102.031 468.419 100.806C473.875 98.6625 477.25 95.7062 477.25 92.4375C477.25 85.8937 463.687 80.5812 446.956 80.5812C430.225 80.5812 416.662 85.8937 416.662 92.4375C416.662 94.175 417.625 95.8125 419.331 97.3C419.594 97.55 419.919 97.8125 420.319 98.0875C421.319 98.8063 422.506 99.4812 423.85 100.1C427.8 102.287 436.181 105.431 438.381 107.675C441.781 111.144 442.1 118.819 442.1 124.462V124.937C409.55 124.462 382.813 114.625 377.306 101.762C376.624 100.216 376.264 98.5465 376.25 96.8562C376.25 81.3312 406.838 68.75 444.575 68.75Z" fill="white"/>
</g>
<path d="M771.12 63.44V188H754.74V95.12L713.34 188H701.82L660.24 94.94V188H643.86V63.44H661.5L707.58 166.4L753.66 63.44H771.12ZM791.819 138.32C791.819 128.24 793.859 119.42 797.939 111.86C802.019 104.18 807.599 98.24 814.679 94.04C821.879 89.84 829.859 87.74 838.619 87.74C847.259 87.74 854.759 89.6 861.119 93.32C867.479 97.04 872.219 101.72 875.339 107.36V89.36H891.899V188H875.339V169.64C872.099 175.4 867.239 180.2 860.759 184.04C854.399 187.76 846.959 189.62 838.439 189.62C829.679 189.62 821.759 187.46 814.679 183.14C807.599 178.82 802.019 172.76 797.939 164.96C793.859 157.16 791.819 148.28 791.819 138.32ZM875.339 138.5C875.339 131.06 873.839 124.58 870.839 119.06C867.839 113.54 863.759 109.34 858.599 106.46C853.559 103.46 847.979 101.96 841.859 101.96C835.739 101.96 830.159 103.4 825.119 106.28C820.079 109.16 816.059 113.36 813.059 118.88C810.059 124.4 808.559 130.88 808.559 138.32C808.559 145.88 810.059 152.48 813.059 158.12C816.059 163.64 820.079 167.9 825.119 170.9C830.159 173.78 835.739 175.22 841.859 175.22C847.979 175.22 853.559 173.78 858.599 170.9C863.759 167.9 867.839 163.64 870.839 158.12C873.839 152.48 875.339 145.94 875.339 138.5ZM935 107.54C938.24 101.9 943.04 97.22 949.4 93.5C955.88 89.66 963.38 87.74 971.9 87.74C980.66 87.74 988.58 89.84 995.66 94.04C1002.86 98.24 1008.5 104.18 1012.58 111.86C1016.66 119.42 1018.7 128.24 1018.7 138.32C1018.7 148.28 1016.66 157.16 1012.58 164.96C1008.5 172.76 1002.86 178.82 995.66 183.14C988.58 187.46 980.66 189.62 971.9 189.62C963.5 189.62 956.06 187.76 949.58 184.04C943.22 180.2 938.36 175.46 935 169.82V234.8H918.62V89.36H935V107.54ZM1001.96 138.32C1001.96 130.88 1000.46 124.4 997.46 118.88C994.46 113.36 990.38 109.16 985.22 106.28C980.18 103.4 974.6 101.96 968.48 101.96C962.48 101.96 956.9 103.46 951.74 106.46C946.7 109.34 942.62 113.6 939.5 119.24C936.5 124.76 935 131.18 935 138.5C935 145.94 936.5 152.48 939.5 158.12C942.62 163.64 946.7 167.9 951.74 170.9C956.9 173.78 962.48 175.22 968.48 175.22C974.6 175.22 980.18 173.78 985.22 170.9C990.38 167.9 994.46 163.64 997.46 158.12C1000.46 152.48 1001.96 145.88 1001.96 138.32ZM1055.68 54.8V188H1039.3V54.8H1055.68ZM1172.64 134.9C1172.64 138.02 1172.46 141.32 1172.1 144.8H1093.26C1093.86 154.52 1097.16 162.14 1103.16 167.66C1109.28 173.06 1116.66 175.76 1125.3 175.76C1132.38 175.76 1138.26 174.14 1142.94 170.9C1147.74 167.54 1151.1 163.1 1153.02 157.58H1170.66C1168.02 167.06 1162.74 174.8 1154.82 180.8C1146.9 186.68 1137.06 189.62 1125.3 189.62C1115.94 189.62 1107.54 187.52 1100.1 183.32C1092.78 179.12 1087.02 173.18 1082.82 165.5C1078.62 157.7 1076.52 148.7 1076.52 138.5C1076.52 128.3 1078.56 119.36 1082.64 111.68C1086.72 104 1092.42 98.12 1099.74 94.04C1107.18 89.84 1115.7 87.74 1125.3 87.74C1134.66 87.74 1142.94 89.78 1150.14 93.86C1157.34 97.94 1162.86 103.58 1166.7 110.78C1170.66 117.86 1172.64 125.9 1172.64 134.9ZM1155.72 131.48C1155.72 125.24 1154.34 119.9 1151.58 115.46C1148.82 110.9 1145.04 107.48 1140.24 105.2C1135.56 102.8 1130.34 101.6 1124.58 101.6C1116.3 101.6 1109.22 104.24 1103.34 109.52C1097.58 114.8 1094.28 122.12 1093.44 131.48H1155.72Z" fill="#242926"/>
<defs>
<clipPath id="clip0_7618_59706">
<rect width="250" height="250" fill="white" transform="translate(320)"/>
</clipPath>
</defs>
</svg>
