<svg width="70" height="35" viewBox="0 0 70 35" fill="none" xmlns="http://www.w3.org/2000/svg">
<g clip-path="url(#clip0_7402_25690)">
<path d="M28.5554 33.6441C28.3776 33.7983 28.1727 33.8986 27.9716 33.9988C27.7667 34.099 27.5386 34.176 27.2835 34.2261C27.0283 34.2762 26.7731 34.3033 26.4716 34.3033C25.9883 34.3033 25.5552 34.2261 25.1493 34.0489C24.7434 33.8716 24.4109 33.6443 24.1054 33.3399C23.8 33.0355 23.5719 32.6809 23.4173 32.2763C23.2626 31.8716 23.1621 31.4131 23.1621 30.9584C23.1621 30.4998 23.2394 30.0452 23.4173 29.6406C23.5951 29.2359 23.8232 28.8813 24.1054 28.5769C24.4109 28.2725 24.7434 28.0183 25.1493 27.841C25.5552 27.6638 25.9883 27.5635 26.4716 27.5635C26.777 27.5635 27.0322 27.5906 27.2835 27.6406C27.5116 27.6907 27.7396 27.7677 27.9445 27.8448C28.1495 27.9219 28.3505 28.0491 28.5052 28.1724C28.6598 28.2995 28.8377 28.4499 29.0155 28.604L28.5052 29.1357C28.2268 28.8814 27.9214 28.6541 27.5889 28.4999C27.2602 28.3497 26.8775 28.2456 26.4174 28.2456C26.0617 28.2456 25.7293 28.3226 25.4006 28.4497C25.0952 28.5769 24.8168 28.7773 24.5887 29.0086C24.3606 29.2359 24.1828 29.5404 24.0552 29.8718C23.9276 30.1993 23.8503 30.5576 23.8503 30.9353C23.8503 31.3168 23.9005 31.6714 24.0552 31.9989C24.2098 32.3265 24.3606 32.6076 24.5887 32.862C24.8168 33.1163 25.072 33.2937 25.4006 33.444C25.706 33.5942 26.0385 33.6481 26.4174 33.6481C26.8736 33.6481 27.2564 33.571 27.5889 33.3937C27.9175 33.2164 28.2268 32.9892 28.5554 32.7079L29.0387 33.1895C28.9111 33.3668 28.7333 33.517 28.5554 33.6441Z" fill="white"/>
<path d="M37.1542 34.2023L35.2482 31.6667H33.3654V34.2023H32.627V27.6631H35.4492C35.8049 27.6631 36.1374 27.713 36.4429 27.8132C36.7483 27.9134 36.9764 28.0407 37.1813 28.2179C37.3862 28.3952 37.537 28.5993 37.6646 28.8266C37.7651 29.054 37.8424 29.3353 37.8424 29.6128C37.8424 29.8902 37.7922 30.1215 37.7149 30.3488C37.6375 30.5762 37.5099 30.7535 37.3321 30.9077C37.1542 31.0618 36.9764 31.185 36.7715 31.3122C36.5434 31.4124 36.3153 31.4894 36.0601 31.5395L38.0705 34.2023H37.1542ZM36.6439 28.6996C36.3385 28.4723 35.9325 28.3449 35.399 28.3449H33.3654V31.0078H35.3758C35.631 31.0078 35.8591 30.9809 36.064 30.9077C36.2689 30.8306 36.4467 30.7573 36.5975 30.6301C36.7521 30.5029 36.8759 30.3757 36.9532 30.1985C37.0305 30.0212 37.0808 29.8441 37.0808 29.6398C37.0769 29.2583 36.9223 28.9308 36.6439 28.6996Z" fill="white"/>
<path d="M46.3862 28.3457H42.3928V30.5769H45.9765V31.2358H42.3928V33.5172H46.4366V34.1761H41.6543V27.6367H46.3862V28.3457Z" fill="white"/>
<path d="M55.6698 32.2257C55.4919 32.6303 55.2636 32.9616 54.9581 33.266C54.6527 33.5434 54.2701 33.7978 53.8409 33.952C53.408 34.1061 52.9517 34.2064 52.4416 34.2064H50.1797V27.667H52.4416C52.9517 27.667 53.4351 27.7441 53.8409 27.9214C54.2468 28.0986 54.6298 28.3259 54.9581 28.6072C55.2636 28.8847 55.4919 29.2431 55.6698 29.6477C55.8474 30.0523 55.9249 30.484 55.9249 30.9387C55.9249 31.3934 55.8474 31.8442 55.6698 32.2257ZM54.9814 29.9445C54.8539 29.64 54.6759 29.3626 54.448 29.1083C54.2197 28.8539 53.9375 28.7036 53.582 28.5494C53.2262 28.3953 52.8707 28.3451 52.4644 28.3451H50.9375V33.5166H52.4644C52.8707 33.5166 53.2533 33.4394 53.582 33.3123C53.9142 33.1851 54.1929 33.0079 54.448 32.7806C54.7031 32.5532 54.8539 32.2718 54.9814 31.9713C55.1089 31.6669 55.1865 31.3124 55.1865 30.9579C55.1865 30.6034 55.1089 30.272 54.9814 29.9445Z" fill="white"/>
<path d="M60.5529 27.6865H59.8145V34.2259H60.5529V27.6865Z" fill="white"/>
<path d="M67.1904 34.2023H66.4519V28.3449H64.2637V27.6631H69.4015V28.3449H67.2171L67.1904 34.2023Z" fill="white"/>
<path d="M3.98712 32.4259H3.96006L1.57075 28.9307V34.2023H0.859375V27.6631H1.62101L4.01418 31.2351L6.40348 27.6631H7.16511V34.2023H6.43053V28.9038L3.98712 32.4259Z" fill="white"/>
<path d="M12.1514 27.6631H12.7081V34.2523H11.9735V28.449L10.7247 28.8266L10.5469 28.2179L12.1514 27.6631Z" fill="white"/>
<path d="M17.7722 27.6631H18.3057V34.2523H17.5673V28.449L16.3224 28.8266L16.1445 28.2179L17.7722 27.6631Z" fill="white"/>
<path d="M49.8926 21.3125H20.2891V21.4397H49.8926V21.3125Z" fill="white"/>
<path d="M32.5729 2.18455L32.0896 3.80683L28.7338 2.76633V16.2805H26.9785V0.689453H28.2273L32.5729 2.18455Z" fill="white"/>
<path d="M42.1383 0.689453H43.3835V16.2805H41.6282V2.76633L38.2723 3.80683L37.7891 2.18455L42.1383 0.689453Z" fill="white"/>
</g>
<defs>
<clipPath id="clip0_7402_25690">
<rect width="69" height="34" fill="white" transform="translate(0.501953 0.5)"/>
</clipPath>
</defs>
</svg>
