<svg width="129" height="27" viewBox="0 0 129 27" fill="none" xmlns="http://www.w3.org/2000/svg">
<path d="M103.039 17.3119H105.112V20.8561H103.039V17.3119ZM104.151 14.1183C102.17 14.1183 97.9919 10.7632 97.9919 10.7632V13.2298C97.9919 13.2298 101.727 16.3201 104.151 16.3201C106.588 16.3201 110.184 13.2412 110.184 13.2412V10.7373C110.184 10.7373 106.127 14.1183 104.151 14.1183ZM45.709 16.816L54.4855 20.8561V18.5412L48.5648 16.0309L54.4855 13.5352V11.2219L45.709 15.22V16.816ZM64.2736 11.2219H61.935L56.2311 20.8545H58.6562L63.0998 13.4932L67.5434 20.8545H69.9684L64.2736 11.2219ZM93.0311 11.2219H90.6926L84.9871 20.8577H87.4122L91.8573 13.4932L96.3024 20.8577H98.7274L93.0311 11.2219ZM84.1257 11.2219L80.3418 18.2392L78.6857 15.0988L80.8135 11.2219H78.4188L77.5195 12.889L76.6414 11.2219H74.1526L76.3001 15.1505L74.6334 18.2392L70.9344 11.2219H68.4457L73.7143 20.8561H75.5252L77.477 17.3006L79.4228 20.8561H81.2321L86.5204 11.2219H84.1257ZM15.0103 20.8561H26.3134V11.2219H15.0103V20.8561ZM24.2448 13.4285L24.2417 18.6478H17.085V13.4188L24.2448 13.4285ZM29.4588 20.8496H40.0052V18.643H31.5335V13.4221H40.0052V11.2171H29.4588V20.8496ZM42.7047 11.2219V20.8561H44.7794L44.7763 11.2219H42.7047ZM8.37065 17.2715C8.37065 17.2715 8.47227 19.2843 10.186 20.8528H13.0326C13.0326 20.8528 10.9185 19.5169 10.4969 17.2715H11.7799V11.2219H0.498047V20.8561H2.57122V17.2715H8.37065ZM2.57122 13.4285L9.72952 13.4269V15.3072H2.57122V13.4285Z" fill="white"/>
<path d="M128.413 0L121.842 4.78639V6.45346L128.413 11.2221V8.40969L124.481 5.60377L128.413 2.81238V0ZM114.33 2.81238L118.264 5.60377L114.33 8.40969V11.2221L120.903 6.45346V4.78639L114.33 0V2.81238Z" fill="white"/>
</svg>
