<svg width="163" height="36" viewBox="0 0 137 31" fill="none" xmlns="http://www.w3.org/2000/svg"><path d="M124.065 12.3339H127.84V14.0669C128.552 13.0766 129.82 11.9006 131.986 11.9006C133.163 11.9006 134.895 12.241 135.948 13.5405C136.876 14.6857 137 16.0164 137 17.3159V25.7333H133.224V18.4302C133.224 17.6875 133.194 16.5115 132.513 15.7996C131.925 15.1809 131.12 15.1188 130.749 15.1188C129.759 15.1188 128.985 15.4593 128.428 16.2948C127.871 17.1611 127.84 18.1206 127.84 18.8942V25.7333H124.065V12.3339V12.3339ZM117.7 19.049C117.7 16.9448 116.09 15.2428 113.925 15.2428C111.758 15.2428 110.149 16.9448 110.149 19.049C110.149 21.0913 111.727 22.8243 113.925 22.8243C116.121 22.8243 117.7 21.0913 117.7 19.049ZM119.34 13.7881C120.67 14.9949 121.599 16.8519 121.599 19.049C121.599 21.2152 120.67 23.0719 119.34 24.279C118.195 25.3309 116.462 26.1666 113.925 26.1666C111.387 26.1666 109.654 25.3309 108.509 24.279C107.178 23.0719 106.25 21.2152 106.25 19.049C106.25 16.8519 107.178 14.9949 108.509 13.7881C109.654 12.7358 111.387 11.9006 113.925 11.9006C116.462 11.9006 118.195 12.7358 119.34 13.7881M103.911 25.7333H100.135V12.3339H103.911V25.7333ZM102.023 6.79459C103.057 6.79459 103.911 7.64787 103.911 8.68245C103.911 9.71695 103.057 10.5703 102.023 10.5703C100.989 10.5703 100.135 9.71695 100.135 8.68245C100.135 7.64787 100.989 6.79459 102.023 6.79459ZM95.9612 15.552V25.7333H92.1859V15.552H90.7004V12.3339H92.1859V7.7541H95.9612V12.3339H98.5607V15.552H95.9612ZM87.26 15.5212C86.3624 14.6857 85.4648 14.6236 85.0625 14.6236C84.1653 14.6236 83.6082 15.0569 83.6082 15.7068C83.6082 16.0475 83.763 16.5732 84.815 16.9139L85.7124 17.1923C86.7648 17.5327 88.3431 18.0587 89.1166 19.1106C89.5186 19.6681 89.7973 20.4725 89.7973 21.3389C89.7973 22.546 89.395 23.7527 88.3118 24.7427C87.2287 25.7333 85.9292 26.1666 84.2893 26.1666C81.5039 26.1666 79.9257 24.8358 79.0905 23.9383L81.0707 21.6484C81.8135 22.5148 82.9274 23.1959 84.0414 23.1959C85.0937 23.1959 85.8981 22.6696 85.8981 21.7412C85.8981 20.9057 85.2173 20.5653 84.7225 20.3797L83.8558 20.0702C82.8966 19.7297 81.7823 19.2966 80.9779 18.461C80.3588 17.8111 79.9568 16.9755 79.9568 15.8928C79.9568 14.5928 80.5755 13.5097 81.3491 12.8598C82.4015 12.0242 83.763 11.9006 84.8461 11.9006C85.8361 11.9006 87.4147 12.0242 89.1166 13.3238L87.26 15.5212V15.5212ZM66.1741 19.0182C66.1741 21.1533 67.7212 22.8243 69.8875 22.8243C72.0537 22.8243 73.6013 21.1533 73.6013 19.0182C73.6013 16.8827 72.0537 15.2428 69.8875 15.2428C67.7212 15.2428 66.1741 16.8827 66.1741 19.0182ZM73.2297 12.3339H77.0051V25.7333H73.2297V24.0003C71.8682 25.9501 70.0735 26.1666 69.114 26.1666C64.9982 26.1666 62.2751 22.948 62.2751 19.0182C62.2751 15.0569 64.967 11.9006 68.9283 11.9006C69.9495 11.9006 71.961 12.0863 73.2297 14.0669V12.3339V12.3339ZM50.2625 22.4531H51.9956C52.7383 22.4531 53.8519 22.422 54.7495 21.896C55.7398 21.3081 56.0182 20.3181 56.0182 19.5134C56.0182 18.8634 55.8018 17.749 54.5019 17.1611C53.6355 16.7591 52.614 16.7591 51.7477 16.7591H50.2625V22.4531ZM50.2625 13.6645H51.4073C52.0264 13.6645 54.5331 13.6025 54.5331 10.9723C54.5331 9.08447 53.0784 8.37283 51.4385 8.37283H50.2625V13.6645V13.6645ZM51.3457 5.09265C52.4904 5.09265 54.7187 5.09265 56.3897 6.39258C57.5965 7.32093 58.3084 8.93005 58.3084 10.6631C58.3084 13.3238 56.5445 14.4069 55.9874 14.7165C57.3489 14.9333 58.1536 15.5212 58.6796 16.0164C59.9175 17.1923 60.1651 18.8014 60.1651 19.8845C60.1651 21.0913 59.8248 22.7932 58.4009 24.0622C56.8541 25.4238 54.9663 25.7333 53.1716 25.7333H46.2396V5.09265H51.3457V5.09265Z" fill="white"></path><path d="M8.60046 17.8792H2.28405L0 30.8263L12.9471 28.5419V22.2258C10.931 21.4951 9.3309 19.8954 8.60046 17.8792M0 0L2.28405 12.9471H8.60046C9.3309 10.931 10.931 9.33124 12.9471 8.60046V2.2844L0 0V0ZM17.8792 2.2844V8.60046C19.895 9.33124 21.4951 10.931 22.2255 12.9471H28.5419L30.826 0L17.8792 2.2844ZM30.826 30.8263L17.8792 28.5419V22.2258C19.895 21.4951 21.4951 19.8954 22.2255 17.8792H28.5419L30.826 30.8263Z" fill="white"></path></svg>