<svg width="1500" height="250" viewBox="0 0 1500 250" fill="none" xmlns="http://www.w3.org/2000/svg">
<g clip-path="url(#clip0_7618_59704)">
<path d="M291 0C360.024 0 416 55.976 416 125C416 194.024 360.024 250 291 250C221.976 250 166 194.024 166 125C166 55.976 221.976 0 291 0Z" fill="#111111"/>
<path d="M333.512 145.006C326.104 158.581 311.715 167.773 295.189 167.773C271.254 167.773 251.594 148.4 251.594 124.5C251.594 100.743 271.112 81.2276 295.189 81.2276C311.715 81.2276 326.104 90.4196 333.512 103.995L355.167 92.3993C343.627 71.1872 321.117 56.9043 295.189 56.9043C257.578 56.9043 227.09 87.167 227.09 124.5C227.09 161.834 257.578 192.097 295.189 192.097C321.117 192.097 343.627 177.672 355.167 156.602L333.512 145.006Z" fill="#828487"/>
<path d="M201 124.5C201 73.4264 242.426 32 293.5 32V217C242.568 217 201 175.715 201 124.5Z" fill="#828487"/>
<path fill-rule="evenodd" clip-rule="evenodd" d="M293.501 167.773V192.097C255.512 192.097 224.719 161.834 224.719 124.5C224.719 87.167 255.512 56.9043 293.501 56.9043V81.2276C269.326 81.2276 249.469 100.601 249.469 124.5C249.469 148.4 269.182 167.773 293.501 167.773Z" fill="white"/>
</g>
<path d="M469.74 125.18C469.74 112.94 472.5 101.96 478.02 92.24C483.54 82.4 491.04 74.72 500.52 69.2C510.12 63.68 520.74 60.92 532.38 60.92C546.06 60.92 558 64.22 568.2 70.82C578.4 77.42 585.84 86.78 590.52 98.9H570.9C567.42 91.34 562.38 85.52 555.78 81.44C549.3 77.36 541.5 75.32 532.38 75.32C523.62 75.32 515.76 77.36 508.8 81.44C501.84 85.52 496.38 91.34 492.42 98.9C488.46 106.34 486.48 115.1 486.48 125.18C486.48 135.14 488.46 143.9 492.42 151.46C496.38 158.9 501.84 164.66 508.8 168.74C515.76 172.82 523.62 174.86 532.38 174.86C541.5 174.86 549.3 172.88 555.78 168.92C562.38 164.84 567.42 159.02 570.9 151.46H590.52C585.84 163.46 578.4 172.76 568.2 179.36C558 185.84 546.06 189.08 532.38 189.08C520.74 189.08 510.12 186.38 500.52 180.98C491.04 175.46 483.54 167.84 478.02 158.12C472.5 148.4 469.74 137.42 469.74 125.18ZM630.323 54.8V188H613.943V54.8H630.323ZM747.28 134.9C747.28 138.02 747.1 141.32 746.74 144.8H667.9C668.5 154.52 671.8 162.14 677.8 167.66C683.92 173.06 691.3 175.76 699.94 175.76C707.02 175.76 712.9 174.14 717.58 170.9C722.38 167.54 725.74 163.1 727.66 157.58H745.3C742.66 167.06 737.38 174.8 729.46 180.8C721.54 186.68 711.7 189.62 699.94 189.62C690.58 189.62 682.18 187.52 674.74 183.32C667.42 179.12 661.66 173.18 657.46 165.5C653.26 157.7 651.16 148.7 651.16 138.5C651.16 128.3 653.2 119.36 657.28 111.68C661.36 104 667.06 98.12 674.38 94.04C681.82 89.84 690.34 87.74 699.94 87.74C709.3 87.74 717.58 89.78 724.78 93.86C731.98 97.94 737.5 103.58 741.34 110.78C745.3 117.86 747.28 125.9 747.28 134.9ZM730.36 131.48C730.36 125.24 728.98 119.9 726.22 115.46C723.46 110.9 719.68 107.48 714.88 105.2C710.2 102.8 704.98 101.6 699.22 101.6C690.94 101.6 683.86 104.24 677.98 109.52C672.22 114.8 668.92 122.12 668.08 131.48H730.36ZM761.821 138.32C761.821 128.24 763.861 119.42 767.941 111.86C772.021 104.18 777.601 98.24 784.681 94.04C791.881 89.84 799.861 87.74 808.621 87.74C817.261 87.74 824.761 89.6 831.121 93.32C837.481 97.04 842.221 101.72 845.341 107.36V89.36H861.901V188H845.341V169.64C842.101 175.4 837.241 180.2 830.761 184.04C824.401 187.76 816.961 189.62 808.441 189.62C799.681 189.62 791.761 187.46 784.681 183.14C777.601 178.82 772.021 172.76 767.941 164.96C763.861 157.16 761.821 148.28 761.821 138.32ZM845.341 138.5C845.341 131.06 843.841 124.58 840.841 119.06C837.841 113.54 833.761 109.34 828.601 106.46C823.561 103.46 817.981 101.96 811.861 101.96C805.741 101.96 800.161 103.4 795.121 106.28C790.081 109.16 786.061 113.36 783.061 118.88C780.061 124.4 778.561 130.88 778.561 138.32C778.561 145.88 780.061 152.48 783.061 158.12C786.061 163.64 790.081 167.9 795.121 170.9C800.161 173.78 805.741 175.22 811.861 175.22C817.981 175.22 823.561 173.78 828.601 170.9C833.761 167.9 837.841 163.64 840.841 158.12C843.841 152.48 845.341 145.94 845.341 138.5ZM905.002 105.38C907.882 99.74 911.962 95.36 917.242 92.24C922.642 89.12 929.182 87.56 936.862 87.56V104.48H932.542C914.182 104.48 905.002 114.44 905.002 134.36V188H888.622V89.36H905.002V105.38ZM971.19 107.54C974.43 101.9 979.23 97.22 985.59 93.5C992.07 89.66 999.57 87.74 1008.09 87.74C1016.85 87.74 1024.77 89.84 1031.85 94.04C1039.05 98.24 1044.69 104.18 1048.77 111.86C1052.85 119.42 1054.89 128.24 1054.89 138.32C1054.89 148.28 1052.85 157.16 1048.77 164.96C1044.69 172.76 1039.05 178.82 1031.85 183.14C1024.77 187.46 1016.85 189.62 1008.09 189.62C999.69 189.62 992.25 187.76 985.77 184.04C979.41 180.2 974.55 175.46 971.19 169.82V234.8H954.81V89.36H971.19V107.54ZM1038.15 138.32C1038.15 130.88 1036.65 124.4 1033.65 118.88C1030.65 113.36 1026.57 109.16 1021.41 106.28C1016.37 103.4 1010.79 101.96 1004.67 101.96C998.67 101.96 993.09 103.46 987.93 106.46C982.89 109.34 978.81 113.6 975.69 119.24C972.69 124.76 971.19 131.18 971.19 138.5C971.19 145.94 972.69 152.48 975.69 158.12C978.81 163.64 982.89 167.9 987.93 170.9C993.09 173.78 998.67 175.22 1004.67 175.22C1010.79 175.22 1016.37 173.78 1021.41 170.9C1026.57 167.9 1030.65 163.64 1033.65 158.12C1036.65 152.48 1038.15 145.88 1038.15 138.32ZM1118.51 189.62C1109.27 189.62 1100.87 187.52 1093.31 183.32C1085.87 179.12 1079.99 173.18 1075.67 165.5C1071.47 157.7 1069.37 148.7 1069.37 138.5C1069.37 128.42 1071.53 119.54 1075.85 111.86C1080.29 104.06 1086.29 98.12 1093.85 94.04C1101.41 89.84 1109.87 87.74 1119.23 87.74C1128.59 87.74 1137.05 89.84 1144.61 94.04C1152.17 98.12 1158.11 104 1162.43 111.68C1166.87 119.36 1169.09 128.3 1169.09 138.5C1169.09 148.7 1166.81 157.7 1162.25 165.5C1157.81 173.18 1151.75 179.12 1144.07 183.32C1136.39 187.52 1127.87 189.62 1118.51 189.62ZM1118.51 175.22C1124.39 175.22 1129.91 173.84 1135.07 171.08C1140.23 168.32 1144.37 164.18 1147.49 158.66C1150.73 153.14 1152.35 146.42 1152.35 138.5C1152.35 130.58 1150.79 123.86 1147.67 118.34C1144.55 112.82 1140.47 108.74 1135.43 106.1C1130.39 103.34 1124.93 101.96 1119.05 101.96C1113.05 101.96 1107.53 103.34 1102.49 106.1C1097.57 108.74 1093.61 112.82 1090.61 118.34C1087.61 123.86 1086.11 130.58 1086.11 138.5C1086.11 146.54 1087.55 153.32 1090.43 158.84C1093.43 164.36 1097.39 168.5 1102.31 171.26C1107.23 173.9 1112.63 175.22 1118.51 175.22ZM1232.69 189.62C1223.45 189.62 1215.05 187.52 1207.49 183.32C1200.05 179.12 1194.17 173.18 1189.85 165.5C1185.65 157.7 1183.55 148.7 1183.55 138.5C1183.55 128.42 1185.71 119.54 1190.03 111.86C1194.47 104.06 1200.47 98.12 1208.03 94.04C1215.59 89.84 1224.05 87.74 1233.41 87.74C1242.77 87.74 1251.23 89.84 1258.79 94.04C1266.35 98.12 1272.29 104 1276.61 111.68C1281.05 119.36 1283.27 128.3 1283.27 138.5C1283.27 148.7 1280.99 157.7 1276.43 165.5C1271.99 173.18 1265.93 179.12 1258.25 183.32C1250.57 187.52 1242.05 189.62 1232.69 189.62ZM1232.69 175.22C1238.57 175.22 1244.09 173.84 1249.25 171.08C1254.41 168.32 1258.55 164.18 1261.67 158.66C1264.91 153.14 1266.53 146.42 1266.53 138.5C1266.53 130.58 1264.97 123.86 1261.85 118.34C1258.73 112.82 1254.65 108.74 1249.61 106.1C1244.57 103.34 1239.11 101.96 1233.23 101.96C1227.23 101.96 1221.71 103.34 1216.67 106.1C1211.75 108.74 1207.79 112.82 1204.79 118.34C1201.79 123.86 1200.29 130.58 1200.29 138.5C1200.29 146.54 1201.73 153.32 1204.61 158.84C1207.61 164.36 1211.57 168.5 1216.49 171.26C1221.41 173.9 1226.81 175.22 1232.69 175.22ZM1320.22 54.8V188H1303.84V54.8H1320.22Z" fill="#242926"/>
<defs>
<clipPath id="clip0_7618_59704">
<rect width="250" height="250" fill="white" transform="translate(165)"/>
</clipPath>
</defs>
</svg>
