<svg width="1500" height="250" viewBox="0 0 1500 250" fill="none" xmlns="http://www.w3.org/2000/svg">
<path d="M411.999 6.27148C477.56 6.27148 530.727 59.4386 530.727 124.999C530.727 190.56 477.56 243.727 411.999 243.727C346.439 243.727 293.271 190.56 293.271 124.999C293.271 59.4386 346.439 6.27148 411.999 6.27148Z" fill="#111111"/>
<path fill-rule="evenodd" clip-rule="evenodd" d="M385.189 68.0996H382.573L380.892 70.0913L337.604 120.941L334.49 124.551L337.604 128.161L380.954 179.011L382.636 181.003H385.252H463.293H468.899V175.401V143.036H457.688V169.8H397.522L433.522 128.223L436.698 124.551L433.522 120.879L397.522 79.3028H457.688V106.066H468.899V73.7012V68.0996H463.293H385.189ZM385.252 82.2903L349.252 124.551L385.252 166.812L421.812 124.551L385.252 82.2903Z" fill="white"/>
<path d="M627.24 75.86V117.8H672.96V131.3H627.24V174.5H678.36V188H610.86V62.36H678.36V75.86H627.24ZM722.165 102.86V161C722.165 165.8 723.185 169.22 725.225 171.26C727.265 173.18 730.805 174.14 735.845 174.14H747.905V188H733.145C724.025 188 717.185 185.9 712.625 181.7C708.065 177.5 705.785 170.6 705.785 161V102.86H693.005V89.36H705.785V64.52H722.165V89.36H747.905V102.86H722.165ZM815.752 87.56C823.192 87.56 829.912 89.18 835.912 92.42C841.912 95.54 846.592 100.28 849.952 106.64C853.432 113 855.172 120.74 855.172 129.86V188H838.972V132.2C838.972 122.36 836.512 114.86 831.592 109.7C826.672 104.42 819.952 101.78 811.432 101.78C802.792 101.78 795.892 104.48 790.732 109.88C785.692 115.28 783.172 123.14 783.172 133.46V188H766.792V54.8H783.172V103.4C786.412 98.36 790.852 94.46 796.492 91.7C802.252 88.94 808.672 87.56 815.752 87.56ZM970.968 134.9C970.968 138.02 970.788 141.32 970.428 144.8H891.588C892.188 154.52 895.488 162.14 901.488 167.66C907.608 173.06 914.988 175.76 923.628 175.76C930.708 175.76 936.588 174.14 941.268 170.9C946.068 167.54 949.428 163.1 951.348 157.58H968.988C966.348 167.06 961.068 174.8 953.148 180.8C945.228 186.68 935.388 189.62 923.628 189.62C914.268 189.62 905.868 187.52 898.428 183.32C891.108 179.12 885.348 173.18 881.148 165.5C876.948 157.7 874.848 148.7 874.848 138.5C874.848 128.3 876.888 119.36 880.968 111.68C885.048 104 890.748 98.12 898.068 94.04C905.508 89.84 914.028 87.74 923.628 87.74C932.988 87.74 941.268 89.78 948.468 93.86C955.668 97.94 961.188 103.58 965.028 110.78C968.988 117.86 970.968 125.9 970.968 134.9ZM954.048 131.48C954.048 125.24 952.668 119.9 949.908 115.46C947.148 110.9 943.368 107.48 938.568 105.2C933.888 102.8 928.668 101.6 922.908 101.6C914.628 101.6 907.548 104.24 901.668 109.52C895.908 114.8 892.608 122.12 891.768 131.48H954.048ZM1039.69 87.56C1051.69 87.56 1061.41 91.22 1068.85 98.54C1076.29 105.74 1080.01 116.18 1080.01 129.86V188H1063.81V132.2C1063.81 122.36 1061.35 114.86 1056.43 109.7C1051.51 104.42 1044.79 101.78 1036.27 101.78C1027.63 101.78 1020.73 104.48 1015.57 109.88C1010.53 115.28 1008.01 123.14 1008.01 133.46V188H991.629V89.36H1008.01V103.4C1011.25 98.36 1015.63 94.46 1021.15 91.7C1026.79 88.94 1032.97 87.56 1039.69 87.56ZM1099.69 138.32C1099.69 128.24 1101.73 119.42 1105.81 111.86C1109.89 104.18 1115.47 98.24 1122.55 94.04C1129.75 89.84 1137.73 87.74 1146.49 87.74C1155.13 87.74 1162.63 89.6 1168.99 93.32C1175.35 97.04 1180.09 101.72 1183.21 107.36V89.36H1199.77V188H1183.21V169.64C1179.97 175.4 1175.11 180.2 1168.63 184.04C1162.27 187.76 1154.83 189.62 1146.31 189.62C1137.55 189.62 1129.63 187.46 1122.55 183.14C1115.47 178.82 1109.89 172.76 1105.81 164.96C1101.73 157.16 1099.69 148.28 1099.69 138.32ZM1183.21 138.5C1183.21 131.06 1181.71 124.58 1178.71 119.06C1175.71 113.54 1171.63 109.34 1166.47 106.46C1161.43 103.46 1155.85 101.96 1149.73 101.96C1143.61 101.96 1138.03 103.4 1132.99 106.28C1127.95 109.16 1123.93 113.36 1120.93 118.88C1117.93 124.4 1116.43 130.88 1116.43 138.32C1116.43 145.88 1117.93 152.48 1120.93 158.12C1123.93 163.64 1127.95 167.9 1132.99 170.9C1138.03 173.78 1143.61 175.22 1149.73 175.22C1155.85 175.22 1161.43 173.78 1166.47 170.9C1171.63 167.9 1175.71 163.64 1178.71 158.12C1181.71 152.48 1183.21 145.94 1183.21 138.5Z" fill="#242926"/>
</svg>
