<svg width="1500" height="250" viewBox="0 0 1500 250" fill="none" xmlns="http://www.w3.org/2000/svg">
<g clip-path="url(#clip0_7618_59703)">
<path d="M370 0C439.024 0 495 55.976 495 125C495 194.024 439.024 250 370 250C300.976 250 245 194.024 245 125C245 55.976 300.976 0 370 0Z" fill="#073D7C"/>
<mask id="mask0_7618_59703" style="mask-type:luminance" maskUnits="userSpaceOnUse" x="272" y="108" width="196" height="34">
<path d="M467.5 108H272V142H467.5V108Z" fill="white"/>
</mask>
<g mask="url(#mask0_7618_59703)">
<path d="M272 113.135V117.406H288.706C289.411 117.406 289.931 117.044 290.26 116.322L291.452 113.137H272V113.135ZM272 122.93V136.863H276.797V127.915C276.797 127.667 276.88 127.466 277.046 127.307C277.209 127.148 277.404 127.068 277.624 127.068H284.339C285.044 127.068 285.564 126.685 285.893 125.916L286.919 122.93H272Z" fill="white"/>
<path d="M311.357 114.83C310.829 113.701 310.013 113.135 308.911 113.135H305.14L295.611 136.863H300.607L307.818 117.947L314.897 136.863H320.091L311.357 114.83Z" fill="white"/>
<path d="M332.443 132.524V114.83C332.443 114.354 332.284 113.956 331.965 113.625C331.647 113.298 331.254 113.135 330.791 113.135H327.648V136.863H342.336C342.997 136.863 343.506 136.503 343.859 135.78L345.114 132.524H332.443Z" fill="white"/>
<path d="M370.022 130.684C369.693 130.684 369.36 130.798 369.03 131.023C367.597 132.131 365.987 132.683 364.199 132.683C362.039 132.683 360.24 131.943 358.806 130.462C357.373 128.982 356.657 127.17 356.657 125.021C356.657 122.872 357.368 120.964 358.789 119.495C360.21 118.026 361.971 117.29 364.064 117.29C365.897 117.29 367.549 117.878 369.027 119.052C369.356 119.278 369.688 119.39 370.017 119.39C370.347 119.39 370.67 119.289 370.978 119.086L373.657 117.187C372.601 115.876 371.223 114.814 369.524 114C367.824 113.188 366.006 112.781 364.064 112.781C361.794 112.781 359.721 113.318 357.844 114.389C355.971 115.463 354.481 116.921 353.379 118.764C352.277 120.606 351.725 122.688 351.725 125.017C351.725 127.208 352.248 129.232 353.294 131.086C354.341 132.938 355.79 134.423 357.643 135.543C359.496 136.661 361.635 137.221 364.059 137.221C365.893 137.221 367.65 136.825 369.336 136.033C371.023 135.241 372.428 134.181 373.555 132.846L370.973 130.983C370.665 130.78 370.347 130.677 370.013 130.677" fill="white"/>
<path d="M404.038 118.658C402.914 116.829 401.419 115.389 399.558 114.338C398.279 113.617 396.919 113.143 395.482 112.917V117.522C396.734 117.851 397.816 118.506 398.731 119.488C400.108 120.968 400.798 122.807 400.798 124.996C400.798 127.186 400.108 129.028 398.731 130.507C397.816 131.489 396.734 132.146 395.482 132.475V137.088C397.02 136.856 398.44 136.353 399.739 135.577C401.589 134.469 403.052 132.989 404.121 131.135C405.191 129.283 405.725 127.237 405.725 124.996C405.725 122.603 405.162 120.49 404.038 118.658ZM382.817 118.862C381.748 120.716 381.213 122.76 381.213 124.996C381.213 127.394 381.78 129.514 382.917 131.354C384.052 133.197 385.552 134.637 387.415 135.675C388.694 136.388 390.041 136.858 391.459 137.082V132.468C390.239 132.139 389.165 131.484 388.242 130.507C386.841 129.028 386.14 127.19 386.14 124.996C386.14 122.802 386.841 120.942 388.242 119.472C389.165 118.502 390.239 117.853 391.459 117.524V112.906C389.925 113.137 388.506 113.64 387.201 114.42C385.349 115.53 383.888 117.01 382.817 118.862Z" fill="white"/>
<path d="M433.855 113.135H429.356V130.183C427.039 126.741 421.801 118.889 419.322 115.17C418.477 113.904 417.079 113.144 415.582 113.139L413.279 113.135V136.863H417.812V121L426.679 134.772C427.52 136.078 428.945 136.863 430.472 136.863H433.857L433.855 113.135Z" fill="white"/>
<path d="M447.062 113.195H441.414L449.624 125.164L441.674 136.803H447.323L455.137 125.167L447.062 113.195ZM457.736 113.195L454.399 118.08L457.178 122.127L463.352 113.195H457.736ZM457.18 127.873L454.395 131.932L457.738 136.805H463.354L457.18 127.875V127.873Z" fill="white"/>
</g>
</g>
<path d="M638.78 62.54V75.86H584.24V118.16H628.52V131.48H584.24V188H567.86V62.54H638.78ZM651.483 138.32C651.483 128.24 653.523 119.42 657.603 111.86C661.683 104.18 667.263 98.24 674.343 94.04C681.543 89.84 689.523 87.74 698.283 87.74C706.923 87.74 714.423 89.6 720.783 93.32C727.143 97.04 731.883 101.72 735.003 107.36V89.36H751.563V188H735.003V169.64C731.763 175.4 726.903 180.2 720.423 184.04C714.063 187.76 706.623 189.62 698.103 189.62C689.343 189.62 681.423 187.46 674.343 183.14C667.263 178.82 661.683 172.76 657.603 164.96C653.523 157.16 651.483 148.28 651.483 138.32ZM735.003 138.5C735.003 131.06 733.503 124.58 730.503 119.06C727.503 113.54 723.423 109.34 718.263 106.46C713.223 103.46 707.643 101.96 701.523 101.96C695.403 101.96 689.823 103.4 684.783 106.28C679.743 109.16 675.723 113.36 672.723 118.88C669.723 124.4 668.223 130.88 668.223 138.32C668.223 145.88 669.723 152.48 672.723 158.12C675.723 163.64 679.743 167.9 684.783 170.9C689.823 173.78 695.403 175.22 701.523 175.22C707.643 175.22 713.223 173.78 718.263 170.9C723.423 167.9 727.503 163.64 730.503 158.12C733.503 152.48 735.003 145.94 735.003 138.5ZM794.664 54.8V188H778.284V54.8H794.664ZM815.501 138.5C815.501 128.3 817.541 119.42 821.621 111.86C825.701 104.18 831.341 98.24 838.541 94.04C845.861 89.84 854.201 87.74 863.561 87.74C875.681 87.74 885.641 90.68 893.441 96.56C901.361 102.44 906.581 110.6 909.101 121.04H891.461C889.781 115.04 886.481 110.3 881.561 106.82C876.761 103.34 870.761 101.6 863.561 101.6C854.201 101.6 846.641 104.84 840.881 111.32C835.121 117.68 832.241 126.74 832.241 138.5C832.241 150.38 835.121 159.56 840.881 166.04C846.641 172.52 854.201 175.76 863.561 175.76C870.761 175.76 876.761 174.08 881.561 170.72C886.361 167.36 889.661 162.56 891.461 156.32H909.101C906.461 166.4 901.181 174.5 893.261 180.62C885.341 186.62 875.441 189.62 863.561 189.62C854.201 189.62 845.861 187.52 838.541 183.32C831.341 179.12 825.701 173.18 821.621 165.5C817.541 157.82 815.501 148.82 815.501 138.5ZM973.017 189.62C963.777 189.62 955.377 187.52 947.817 183.32C940.377 179.12 934.497 173.18 930.177 165.5C925.977 157.7 923.877 148.7 923.877 138.5C923.877 128.42 926.037 119.54 930.357 111.86C934.797 104.06 940.797 98.12 948.357 94.04C955.917 89.84 964.377 87.74 973.737 87.74C983.097 87.74 991.557 89.84 999.117 94.04C1006.68 98.12 1012.62 104 1016.94 111.68C1021.38 119.36 1023.6 128.3 1023.6 138.5C1023.6 148.7 1021.32 157.7 1016.76 165.5C1012.32 173.18 1006.26 179.12 998.577 183.32C990.897 187.52 982.377 189.62 973.017 189.62ZM973.017 175.22C978.897 175.22 984.417 173.84 989.577 171.08C994.737 168.32 998.877 164.18 1002 158.66C1005.24 153.14 1006.86 146.42 1006.86 138.5C1006.86 130.58 1005.3 123.86 1002.18 118.34C999.057 112.82 994.977 108.74 989.937 106.1C984.897 103.34 979.437 101.96 973.557 101.96C967.557 101.96 962.037 103.34 956.997 106.1C952.077 108.74 948.117 112.82 945.117 118.34C942.117 123.86 940.617 130.58 940.617 138.5C940.617 146.54 942.057 153.32 944.937 158.84C947.937 164.36 951.897 168.5 956.817 171.26C961.737 173.9 967.137 175.22 973.017 175.22ZM1092.23 87.56C1104.23 87.56 1113.95 91.22 1121.39 98.54C1128.83 105.74 1132.55 116.18 1132.55 129.86V188H1116.35V132.2C1116.35 122.36 1113.89 114.86 1108.97 109.7C1104.05 104.42 1097.33 101.78 1088.81 101.78C1080.17 101.78 1073.27 104.48 1068.11 109.88C1063.07 115.28 1060.55 123.14 1060.55 133.46V188H1044.17V89.36H1060.55V103.4C1063.79 98.36 1068.17 94.46 1073.69 91.7C1079.33 88.94 1085.51 87.56 1092.23 87.56ZM1209.65 125.36L1248.17 188H1229.63L1199.57 139.04L1170.95 188H1152.77L1191.11 125.36L1152.59 62.54H1170.95L1201.19 111.68L1229.99 62.54H1248.35L1209.65 125.36Z" fill="#242926"/>
<defs>
<clipPath id="clip0_7618_59703">
<rect width="250" height="250" fill="white" transform="translate(244)"/>
</clipPath>
</defs>
</svg>
