<svg width="103" height="41" viewBox="0 0 103 41" fill="none" xmlns="http://www.w3.org/2000/svg">
<path d="M27.8086 12.3818H32.9502C37.7086 12.3818 40.0061 15.2453 40.0061 19.3375C40.0061 23.4298 37.7086 26.2932 32.9502 26.2932H27.8086V12.3818ZM30.9938 23.3295H33.1102C35.6099 23.3295 36.6382 21.6561 36.6382 19.3375C36.6382 17.019 35.6099 15.3455 33.1102 15.3455H30.9938V23.3295Z" fill="white"/>
<path d="M41.959 12.3818H45.1442V26.2932H41.959V12.3818Z" fill="white"/>
<path d="M53.472 18.8536H60.8917V26.2928H58.3112V24.2571H57.949C57.1228 25.6476 55.7113 26.6565 53.5932 26.6565C49.944 26.6565 47.1016 23.5522 47.1016 19.3371C47.1016 15.1219 50.0459 12.0176 54.2594 12.0176C57.6661 12.0176 59.865 13.953 60.6702 16.2311V17.2788H57.485C57.0614 15.9481 55.9522 14.9004 54.2594 14.9004C52.0216 14.9004 50.429 16.8164 50.429 19.3354C50.429 21.8545 52.0216 23.8723 54.3208 23.8723C55.9748 23.8723 57.2247 22.8634 57.7291 21.4535H53.4752V18.852L53.472 18.8536Z" fill="white"/>
<path d="M63.1875 12.3818H66.3727V26.2932H63.1875V12.3818Z" fill="white"/>
<path d="M79.1754 12.3818V15.3455H75.1429V26.2932H71.9367V15.3455H67.9043V12.3818H79.1754Z" fill="white"/>
<path d="M87.3204 12.3818L91.6357 25.3263V26.2948H88.5104L87.6841 23.5737H82.3017L81.4754 26.2948H78.3711V25.3263L82.7269 12.3818H87.3236H87.3204ZM83.1667 20.749H86.8159L85.8684 17.6447C85.5855 16.6358 85.364 15.8306 85.2039 14.7408H84.7803C84.6396 15.829 84.4181 16.6358 84.1158 17.6237L83.1683 20.749H83.1667Z" fill="white"/>
<path d="M93.2656 12.3818H96.4508V23.3295H102.499V26.2932H93.2656V12.3818Z" fill="white"/>
<path d="M16.1138 31.9206C9.76122 27.3546 8.98998 17.7392 15.4752 12.9775C13.231 13.081 11.7855 13.7763 11.4153 13.9913C9.40066 17.1134 8.93501 21.2704 10.1557 24.8258C11.4347 28.7111 14.5697 31.8898 18.3952 33.2981C17.5932 32.9133 16.9336 32.5253 16.1138 31.9222V31.9206Z" fill="white"/>
<path d="M13.4935 25.7745C13.0569 24.2061 12.9583 22.0476 13.5873 20.2061H12.0577C11.702 23.2166 12.6931 26.6379 14.6382 28.6234C14.6382 28.6234 13.9494 27.5094 13.4935 25.7745Z" fill="white"/>
<path d="M11.0614 4.24341C1.96504 10.8676 0.84294 24.6028 8.72832 32.5625C15.0631 39.3695 26.4005 40.2054 33.6391 34.4155C22.9146 42.0502 7.22303 35.7267 5.59325 22.4475C4.26581 12.8354 11.9766 3.72602 21.8216 4.03807L24.3115 0.553759C19.6194 0.0784045 14.8303 1.42524 11.0614 4.24341Z" fill="white"/>
<path d="M21.3257 4.73926C13.6117 4.80555 7.00526 11.2147 6.58002 18.8689C5.58566 29.0357 15.6182 37.8152 25.5602 35.862C15.5422 37.2557 5.9058 27.3412 8.91961 17.3863C10.1727 12.7621 14.1178 8.98672 18.8568 8.21872L21.3241 4.73926H21.3257Z" fill="white"/>
<path d="M38.9558 31.1379C27.6104 47.0347 2.57346 39.3143 2.42956 19.6809C2.43441 13.5142 5.4369 7.48335 10.4184 3.84058V0.623047C-0.792825 7.88917 -2.9497 24.0253 6.25341 33.7847C15.4872 43.7299 31.2257 42.4526 39.124 31.5534L38.9542 31.1379H38.9558Z" fill="white"/>
<path d="M27.8086 8.41349V2.82404H30.6171C31.7068 2.82404 32.3713 2.4942 32.5298 2.40527V4.12399L29.3834 4.12075V5.46112H32.3342V6.76754H29.4287V8.41511H27.8102L27.8086 8.41349Z" fill="white"/>
<path d="M41.7182 8.54697C40.5606 8.54697 39.7861 8.31899 39.3463 7.84849C39.0132 7.49278 38.8726 7.00449 38.913 6.35452H40.4878C40.4652 6.68274 40.5202 6.9091 40.6624 7.0627C40.8403 7.25672 41.1572 7.33918 41.7182 7.33918C42.4426 7.33918 42.7514 7.17749 42.7514 6.79753C42.7514 6.36098 42.0853 6.25589 41.4967 6.16373C41.3933 6.14756 41.2914 6.13139 41.1944 6.11361C40.0157 5.90503 38.9583 5.61723 38.9583 4.41753C38.9583 3.31807 39.9349 2.6875 41.6374 2.6875C43.5178 2.6875 44.116 3.57192 44.2858 3.95996L43.3707 5.24536C43.3658 5.21626 43.361 5.18715 43.3545 5.15967C43.1589 4.24615 42.1532 3.90499 41.5646 3.90499C40.9389 3.90499 40.622 4.05051 40.622 4.33831C40.622 4.68755 41.0424 4.76839 41.6245 4.88157C41.7393 4.9042 41.8541 4.92522 41.9721 4.95109C42.504 5.05942 43.0004 5.2017 43.2494 5.2777C43.2882 5.28901 43.4402 5.35045 43.4806 5.36662C44.1581 5.66412 44.4604 6.08612 44.4604 6.7361C44.4604 8.31252 42.7433 8.54697 41.7199 8.54697H41.7182Z" fill="white"/>
<path d="M55.1964 8.41465L52.6984 5.01765L52.7032 5.09202C52.721 5.40407 52.7307 5.71613 52.7307 6.07507V8.41465H51.2012V2.8252H52.8051L55.3015 6.18339L55.2983 6.11064C55.2805 5.75331 55.2708 5.41377 55.2708 5.10172V2.8252H56.8003V8.41465H55.1964Z" fill="white"/>
<path d="M49.2267 8.41465L48.8953 7.59167H46.4231L46.1014 8.41465H44.5039L46.7934 2.8252H48.5881L50.8856 8.41465H49.2251H49.2267ZM46.8985 6.38389H48.4215L47.6455 4.43073L46.8985 6.38389Z" fill="white"/>
<path d="M61.7657 8.41465L61.4343 7.59167H58.9621L58.6484 8.41465H57.0332L59.3307 2.8252H61.1255L63.423 8.41465H61.7625H61.7657ZM59.4294 6.38389H60.9605L60.1861 4.43235L59.4294 6.38389Z" fill="white"/>
<path d="M73.9472 8.41041L73.6157 7.58743H71.1435L70.8121 8.41041H69.2146L71.5041 2.82095H73.3069L75.6044 8.41041H73.9439H73.9472ZM71.6011 6.37964H73.142L72.3675 4.4184L71.6011 6.37964ZM67.4959 8.41041L66.4401 6.47019H65.2243V8.41041H63.6591V4.39091C63.6591 3.5065 63.3115 2.95839 63.2129 2.81934H66.2849C68.0214 2.81934 68.8654 3.39978 68.8654 4.59464C68.8654 6.09507 67.0561 6.39581 66.694 6.44108H66.6843L66.6875 6.48474H68.0974L69.1548 8.40717H67.4975L67.4959 8.41041ZM65.2259 5.35132H66.0973C66.7457 5.35132 67.0998 5.19611 67.1887 4.86789C67.2033 4.8113 67.2114 4.75147 67.2114 4.68518C67.2114 4.57685 67.1774 4.4572 67.1241 4.37475C67.0739 4.29875 67.0028 4.23408 66.9139 4.18396C66.736 4.0821 66.4822 4.02874 66.162 4.02874H65.2275V5.35132H65.2259Z" fill="white"/>
<path d="M37.2253 8.41465L36.8858 7.59167H34.4233L34.1016 8.41465H32.4863L34.7839 2.8252H36.5867L38.8761 8.41465H37.2253ZM34.889 6.38389H36.412L35.636 4.43073L34.889 6.38389Z" fill="white"/>
</svg>
