<svg width="82" height="31" viewBox="0 0 82 31" fill="none" xmlns="http://www.w3.org/2000/svg">
<g id="logo_new">
<g id="Icon Group">
<path id="Vector" fill-rule="evenodd" clip-rule="evenodd" d="M10.8711 -0.000297546V24.8301L0.456117 24.8301V6.01919L10.8711 -0.000297546Z" fill="#0519D3"/>
<path id="Vector_2" fill-rule="evenodd" clip-rule="evenodd" d="M12.9551 30.9008L12.9551 5.91992H23.3701V6.20523V24.8813L12.9551 30.9008Z" fill="#0519D3"/>
</g>
<g id="Logo Container">
<rect id="Background" x="34.8555" y="8.83203" width="3.33259" height="16.051" fill="#1B1E27"/>
<rect id="Background_2" x="34.8555" y="8.83203" width="3.33259" height="16.051" fill="#1B1E27"/>
<g id="Icon Group_2">
<path id="Ellipse 640" d="M57.0608 16.8079C57.0608 21.2419 53.3024 24.8365 48.6661 24.8365C44.0299 24.8365 40.2715 21.2419 40.2715 16.8079C40.2715 12.3738 44.0299 8.7793 48.6661 8.7793C53.3024 8.7793 57.0608 12.3738 57.0608 16.8079ZM43.6293 16.8079C43.6293 19.4683 45.8844 21.625 48.6661 21.625C51.4479 21.625 53.7029 19.4683 53.7029 16.8079C53.7029 14.1474 51.4479 11.9907 48.6661 11.9907C45.8844 11.9907 43.6293 14.1474 43.6293 16.8079Z" fill="#1B1E27"/>
<path id="Rectangle 1512" d="M53.7031 4.13281L57.061 4.13281V24.9263H53.7031V4.13281Z" fill="#1B1E27"/>
</g>
<path id="Rectangle 1513" d="M59.1016 4.04492H62.4594V24.8384H59.1016L59.1016 4.04492Z" fill="#1B1E27"/>
<g id="Logo Group">
<path id="Ellipse 641" d="M81.1739 18.1061C81.4929 16.1381 81.0461 14.126 79.9193 12.456C78.7924 10.786 77.0649 9.57569 75.0684 9.05752C73.0719 8.53935 70.947 8.74978 69.1017 9.64842C67.2564 10.5471 65.8206 12.0706 65.0701 13.9265C64.3196 15.7825 64.3071 17.8401 65.0352 19.7043C65.7632 21.5686 67.1804 23.1081 69.0147 24.0274C70.8491 24.9467 72.9712 25.1809 74.9739 24.6852C76.9766 24.1895 78.7186 22.9987 79.8656 21.3414L77.0738 19.5486C76.3856 20.543 75.3404 21.2574 74.1388 21.5549C72.9372 21.8523 71.6639 21.7118 70.5633 21.1602C69.4627 20.6086 68.6124 19.6849 68.1756 18.5663C67.7388 17.4478 67.7462 16.2132 68.1966 15.0997C68.6469 13.9861 69.5083 13.072 70.6155 12.5328C71.7227 11.9936 72.9976 11.8674 74.1955 12.1783C75.3934 12.4892 76.4299 13.2153 77.1061 14.2173C77.7822 15.2194 78.0502 16.4266 77.8588 17.6074L81.1739 18.1061Z" fill="#1B1E27"/>
<path id="Rectangle 1514" d="M66.1113 15.3057H80.9519L81.1614 18.1026H66.1113V15.3057Z" fill="#1B1E27"/>
</g>
</g>
</g>
</svg>
