<svg width="234" height="41" viewBox="0 0 234 41" fill="none" xmlns="http://www.w3.org/2000/svg">
<path fill-rule="evenodd" clip-rule="evenodd" d="M11.5984 2.00002V30.9282L-9.05991e-05 30.9282V9.01291L11.5984 2.00002Z" fill="white"/>
<path fill-rule="evenodd" clip-rule="evenodd" d="M13.9167 37.9995L13.9167 8.896H25.5152V9.22839V30.9866L13.9167 37.9995Z" fill="white"/>
<rect x="38.3074" y="12.2891" width="3.71129" height="18.7" fill="white"/>
<rect x="38.3074" y="12.2891" width="3.71129" height="18.7" fill="white"/>
<path d="M63.0345 21.5796C63.0345 26.7455 58.849 30.9332 53.686 30.9332C48.5229 30.9332 44.3374 26.7455 44.3374 21.5796C44.3374 16.4138 48.5229 12.2261 53.686 12.2261C58.849 12.2261 63.0345 16.4138 63.0345 21.5796ZM48.0768 21.5796C48.0768 24.6791 50.5881 27.1918 53.686 27.1918C56.7838 27.1918 59.2951 24.6791 59.2951 21.5796C59.2951 18.4801 56.7838 15.9675 53.686 15.9675C50.5881 15.9675 48.0768 18.4801 48.0768 21.5796Z" fill="white"/>
<path d="M59.293 6.81201L63.0324 6.812V31.0371H59.293V6.81201Z" fill="white"/>
<path d="M65.3071 6.71191H69.0466V30.937H65.3071L65.3071 6.71191Z" fill="white"/>
<path d="M89.8892 23.0935C90.2445 20.8008 89.7469 18.4566 88.492 16.511C87.2371 14.5654 85.3133 13.1554 83.0899 12.5517C80.8665 11.948 78.5002 12.1931 76.4451 13.2401C74.3901 14.287 72.7913 16.062 71.9554 18.2242C71.1196 20.3865 71.1058 22.7836 71.9165 24.9555C72.7273 27.1275 74.3055 28.9211 76.3483 29.9921C78.3911 31.0631 80.7544 31.336 82.9846 30.7584C85.2149 30.1809 87.1549 28.7936 88.4322 26.8628L85.3232 24.7741C84.5568 25.9326 83.3928 26.765 82.0547 27.1115C80.7165 27.458 79.2985 27.2943 78.0729 26.6517C76.8472 26.0091 75.9003 24.9329 75.4138 23.6298C74.9273 22.3266 74.9357 20.8883 75.4371 19.591C75.9386 18.2936 76.898 17.2287 78.131 16.6005C79.364 15.9723 80.7838 15.8252 82.1178 16.1874C83.4519 16.5497 84.6061 17.3957 85.3591 18.563C86.112 19.7304 86.4106 21.1369 86.1974 22.5126L89.8892 23.0935Z" fill="white"/>
<path d="M73.116 19.8306H89.6429L89.8762 23.0891H73.116V19.8306Z" fill="white"/>
<path d="M122.125 28V13.7227H124.468V28H122.125ZM133.238 16.9844C134.456 16.9844 135.403 17.3001 136.08 17.9316C136.764 18.5566 137.105 19.5625 137.105 20.9492V28H134.811V21.3789C134.811 20.5391 134.638 19.9108 134.293 19.4941C133.948 19.071 133.414 18.8594 132.691 18.8594C131.643 18.8594 130.914 19.1816 130.504 19.8262C130.1 20.4707 129.898 21.4049 129.898 22.6289V28H127.604V17.1895H129.391L129.713 18.6543H129.84C130.074 18.2767 130.364 17.9674 130.709 17.7266C131.061 17.4792 131.451 17.2936 131.881 17.1699C132.317 17.0462 132.77 16.9844 133.238 16.9844ZM147.184 24.9141C147.184 25.6237 147.011 26.2227 146.666 26.7109C146.321 27.1992 145.817 27.5703 145.153 27.8242C144.495 28.0716 143.688 28.1953 142.731 28.1953C141.976 28.1953 141.325 28.14 140.778 28.0293C140.237 27.9251 139.726 27.7624 139.245 27.541V25.5586C139.759 25.7995 140.335 26.0078 140.973 26.1836C141.618 26.3594 142.226 26.4473 142.799 26.4473C143.554 26.4473 144.098 26.3301 144.43 26.0957C144.762 25.8548 144.928 25.5358 144.928 25.1387C144.928 24.9043 144.86 24.696 144.723 24.5137C144.593 24.3249 144.345 24.1328 143.981 23.9375C143.623 23.7357 143.095 23.4948 142.399 23.2148C141.715 22.9414 141.139 22.668 140.67 22.3945C140.202 22.1211 139.847 21.7923 139.606 21.4082C139.365 21.0176 139.245 20.5195 139.245 19.9141C139.245 18.957 139.622 18.2311 140.377 17.7363C141.139 17.235 142.145 16.9844 143.395 16.9844C144.059 16.9844 144.684 17.0527 145.27 17.1895C145.862 17.3197 146.442 17.5117 147.008 17.7656L146.286 19.4941C145.797 19.2793 145.306 19.1035 144.811 18.9668C144.323 18.8236 143.825 18.752 143.317 18.752C142.724 18.752 142.272 18.8431 141.959 19.0254C141.653 19.2077 141.5 19.4681 141.5 19.8066C141.5 20.0605 141.575 20.2754 141.725 20.4512C141.875 20.627 142.132 20.8027 142.496 20.9785C142.868 21.1543 143.382 21.3724 144.039 21.6328C144.684 21.8802 145.241 22.1406 145.709 22.4141C146.185 22.681 146.549 23.0098 146.803 23.4004C147.057 23.791 147.184 24.2956 147.184 24.9141ZM153.288 26.3398C153.587 26.3398 153.884 26.3138 154.177 26.2617C154.47 26.2031 154.736 26.1348 154.977 26.0566V27.7949C154.723 27.9056 154.395 28 153.991 28.0781C153.587 28.1562 153.167 28.1953 152.731 28.1953C152.119 28.1953 151.569 28.0944 151.081 27.8926C150.593 27.6842 150.205 27.3294 149.919 26.8281C149.632 26.3268 149.489 25.6335 149.489 24.748V18.9375H148.014V17.9121L149.596 17.1016L150.348 14.7871H151.794V17.1895H154.889V18.9375H151.794V24.7188C151.794 25.2656 151.93 25.6725 152.204 25.9395C152.477 26.2064 152.839 26.3398 153.288 26.3398ZM159.07 17.1895V28H156.775V17.1895H159.07ZM157.937 13.0488C158.288 13.0488 158.591 13.1432 158.845 13.332C159.105 13.5208 159.236 13.8464 159.236 14.3086C159.236 14.7643 159.105 15.0898 158.845 15.2852C158.591 15.474 158.288 15.5684 157.937 15.5684C157.572 15.5684 157.263 15.474 157.009 15.2852C156.762 15.0898 156.638 14.7643 156.638 14.3086C156.638 13.8464 156.762 13.5208 157.009 13.332C157.263 13.1432 157.572 13.0488 157.937 13.0488ZM165.984 26.3398C166.283 26.3398 166.58 26.3138 166.873 26.2617C167.166 26.2031 167.433 26.1348 167.673 26.0566V27.7949C167.42 27.9056 167.091 28 166.687 28.0781C166.283 28.1562 165.864 28.1953 165.427 28.1953C164.815 28.1953 164.265 28.0944 163.777 27.8926C163.289 27.6842 162.901 27.3294 162.615 26.8281C162.328 26.3268 162.185 25.6335 162.185 24.748V18.9375H160.711V17.9121L162.293 17.1016L163.045 14.7871H164.49V17.1895H167.586V18.9375H164.49V24.7188C164.49 25.2656 164.627 25.6725 164.9 25.9395C165.173 26.2064 165.535 26.3398 165.984 26.3398ZM178.895 17.1895V28H177.088L176.775 26.5449H176.648C176.421 26.916 176.131 27.2253 175.779 27.4727C175.428 27.7135 175.037 27.8926 174.607 28.0098C174.178 28.1335 173.725 28.1953 173.25 28.1953C172.436 28.1953 171.74 28.0586 171.16 27.7852C170.587 27.5052 170.148 27.0755 169.842 26.4961C169.536 25.9167 169.383 25.168 169.383 24.25V17.1895H171.688V23.8203C171.688 24.6602 171.857 25.2884 172.195 25.7051C172.54 26.1217 173.074 26.3301 173.797 26.3301C174.493 26.3301 175.047 26.1868 175.457 25.9004C175.867 25.6139 176.157 25.1908 176.326 24.6309C176.502 24.071 176.59 23.3841 176.59 22.5703V17.1895H178.895ZM185.809 26.3398C186.108 26.3398 186.405 26.3138 186.698 26.2617C186.991 26.2031 187.258 26.1348 187.498 26.0566V27.7949C187.245 27.9056 186.916 28 186.512 28.0781C186.108 28.1562 185.689 28.1953 185.252 28.1953C184.64 28.1953 184.09 28.0944 183.602 27.8926C183.114 27.6842 182.726 27.3294 182.44 26.8281C182.153 26.3268 182.01 25.6335 182.01 24.748V18.9375H180.536V17.9121L182.118 17.1016L182.87 14.7871H184.315V17.1895H187.411V18.9375H184.315V24.7188C184.315 25.2656 184.452 25.6725 184.725 25.9395C184.998 26.2064 185.36 26.3398 185.809 26.3398ZM191.591 17.1895V28H189.296V17.1895H191.591ZM190.458 13.0488C190.809 13.0488 191.112 13.1432 191.366 13.332C191.626 13.5208 191.757 13.8464 191.757 14.3086C191.757 14.7643 191.626 15.0898 191.366 15.2852C191.112 15.474 190.809 15.5684 190.458 15.5684C190.093 15.5684 189.784 15.474 189.53 15.2852C189.283 15.0898 189.159 14.7643 189.159 14.3086C189.159 13.8464 189.283 13.5208 189.53 13.332C189.784 13.1432 190.093 13.0488 190.458 13.0488ZM204.052 22.5703C204.052 23.4688 203.935 24.2663 203.7 24.9629C203.466 25.6595 203.124 26.2487 202.675 26.7305C202.226 27.2057 201.685 27.5703 201.054 27.8242C200.422 28.0716 199.71 28.1953 198.915 28.1953C198.173 28.1953 197.493 28.0716 196.874 27.8242C196.256 27.5703 195.719 27.2057 195.263 26.7305C194.814 26.2487 194.465 25.6595 194.218 24.9629C193.971 24.2663 193.847 23.4688 193.847 22.5703C193.847 21.3789 194.052 20.3698 194.462 19.543C194.879 18.7096 195.471 18.0749 196.239 17.6387C197.008 17.2025 197.922 16.9844 198.984 16.9844C199.98 16.9844 200.859 17.2025 201.62 17.6387C202.382 18.0749 202.978 18.7096 203.407 19.543C203.837 20.3763 204.052 21.3854 204.052 22.5703ZM196.21 22.5703C196.21 23.3581 196.305 24.0319 196.493 24.5918C196.689 25.1517 196.988 25.5814 197.392 25.8809C197.795 26.1738 198.316 26.3203 198.954 26.3203C199.592 26.3203 200.113 26.1738 200.517 25.8809C200.92 25.5814 201.217 25.1517 201.405 24.5918C201.594 24.0319 201.689 23.3581 201.689 22.5703C201.689 21.7826 201.594 21.1152 201.405 20.5684C201.217 20.015 200.92 19.5951 200.517 19.3086C200.113 19.0156 199.589 18.8691 198.945 18.8691C197.994 18.8691 197.301 19.1882 196.864 19.8262C196.428 20.4642 196.21 21.3789 196.21 22.5703ZM211.923 16.9844C213.141 16.9844 214.088 17.3001 214.765 17.9316C215.449 18.5566 215.791 19.5625 215.791 20.9492V28H213.496V21.3789C213.496 20.5391 213.323 19.9108 212.978 19.4941C212.633 19.071 212.099 18.8594 211.377 18.8594C210.328 18.8594 209.599 19.1816 209.189 19.8262C208.785 20.4707 208.584 21.4049 208.584 22.6289V28H206.289V17.1895H208.076L208.398 18.6543H208.525C208.759 18.2767 209.049 17.9674 209.394 17.7266C209.746 17.4792 210.136 17.2936 210.566 17.1699C211.002 17.0462 211.455 16.9844 211.923 16.9844ZM222.842 16.9844C224.209 16.9844 225.241 17.2871 225.938 17.8926C226.641 18.498 226.992 19.4421 226.992 20.7246V28H225.361L224.922 26.4668H224.844C224.538 26.8574 224.222 27.1797 223.896 27.4336C223.571 27.6875 223.193 27.8763 222.764 28C222.34 28.1302 221.823 28.1953 221.211 28.1953C220.566 28.1953 219.99 28.0781 219.482 27.8438C218.975 27.6029 218.574 27.2383 218.281 26.75C217.988 26.2617 217.842 25.6432 217.842 24.8945C217.842 23.7812 218.255 22.9447 219.082 22.3848C219.915 21.8249 221.172 21.5156 222.852 21.457L224.727 21.3887V20.8223C224.727 20.0736 224.551 19.5397 224.199 19.2207C223.854 18.9017 223.366 18.7422 222.734 18.7422C222.194 18.7422 221.67 18.8203 221.162 18.9766C220.654 19.1328 220.16 19.3249 219.678 19.5527L218.936 17.9316C219.463 17.6517 220.062 17.4238 220.732 17.248C221.41 17.0723 222.113 16.9844 222.842 16.9844ZM224.717 22.834L223.32 22.8828C222.174 22.9219 221.37 23.1172 220.908 23.4688C220.446 23.8203 220.215 24.3021 220.215 24.9141C220.215 25.4479 220.374 25.8385 220.693 26.0859C221.012 26.3268 221.432 26.4473 221.953 26.4473C222.747 26.4473 223.405 26.2227 223.926 25.7734C224.453 25.3177 224.717 24.6504 224.717 23.7715V22.834ZM232.11 28H229.805V12.8047H232.11V28Z" fill="white"/>
<line x1="105.501" x2="105.501" y2="41" stroke="white"/>
</svg>
