<svg width="250" height="56" viewBox="0 0 250 56" fill="none" xmlns="http://www.w3.org/2000/svg">
<path d="M144.451 34.7382C143.992 35.1372 143.464 35.3969 142.945 35.6562C142.416 35.9155 141.828 36.1148 141.17 36.2445C140.511 36.3742 139.853 36.4442 139.075 36.4442C137.829 36.4442 136.711 36.2445 135.664 35.7857C134.617 35.327 133.759 34.7387 132.971 33.9508C132.183 33.1628 131.595 32.245 131.196 31.1978C130.797 30.1505 130.538 28.9638 130.538 27.7869C130.538 26.6 130.737 25.4232 131.196 24.376C131.655 23.3287 132.243 22.4109 132.971 21.623C133.759 20.8351 134.617 20.1771 135.664 19.7184C136.711 19.2596 137.829 19 139.075 19C139.863 19 140.521 19.0701 141.17 19.1997C141.758 19.3294 142.347 19.5286 142.875 19.7281C143.404 19.9276 143.922 20.2568 144.321 20.576C144.72 20.9051 145.179 21.2942 145.638 21.6931L144.321 23.0694C143.603 22.4111 142.815 21.8228 141.958 21.4238C141.11 21.0348 140.122 20.7654 138.936 20.7654C138.018 20.7654 137.16 20.9647 136.313 21.2938C135.525 21.6229 134.807 22.1417 134.218 22.7402C133.63 23.3286 133.171 24.1168 132.842 24.9745C132.513 25.8222 132.313 26.7496 132.313 27.727C132.313 28.7144 132.443 29.6322 132.842 30.48C133.241 31.3277 133.63 32.0555 134.218 32.7138C134.807 33.3721 135.465 33.8311 136.313 34.2201C137.1 34.609 137.958 34.7485 138.936 34.7485C140.113 34.7485 141.1 34.5488 141.958 34.09C142.805 33.6312 143.603 33.043 144.451 32.3149L145.698 33.5616C145.369 34.0204 144.91 34.4091 144.451 34.7382Z" fill="white"/>
<path d="M166.633 36.1845L161.716 29.6217H156.859V36.1845H154.954V19.2595H162.234C163.152 19.2595 164.01 19.3888 164.798 19.6481C165.586 19.9074 166.174 20.2368 166.703 20.6956C167.231 21.1544 167.62 21.6826 167.949 22.271C168.209 22.8595 168.408 23.5876 168.408 24.3057C168.408 25.0238 168.278 25.6224 168.079 26.2108C167.879 26.7993 167.55 27.2582 167.092 27.6572C166.633 28.0561 166.174 28.3751 165.645 28.7042C165.057 28.9635 164.468 29.1629 163.81 29.2925L168.997 36.1845H166.633ZM165.316 21.9423C164.528 21.3539 163.481 21.0243 162.105 21.0243H156.859V27.9163H162.045C162.703 27.9163 163.292 27.8467 163.82 27.6572C164.349 27.4577 164.808 27.268 165.197 26.9389C165.595 26.6097 165.915 26.2805 166.114 25.8217C166.314 25.3629 166.443 24.9044 166.443 24.3758C166.433 23.3884 166.034 22.5407 165.316 21.9423Z" fill="white"/>
<path d="M190.449 21.0245H180.147V26.7992H189.392V28.5046H180.147V34.4094H190.579V36.115H178.242V19.1895H190.449V21.0245Z" fill="white"/>
<path d="M214.397 31.0682C213.938 32.1154 213.349 32.9729 212.561 33.7608C211.773 34.4789 210.786 35.1374 209.679 35.5364C208.562 35.9353 207.385 36.1948 206.069 36.1948H200.234V19.2693H206.069C207.385 19.2693 208.632 19.469 209.679 19.9277C210.726 20.3865 211.714 20.9748 212.561 21.7028C213.349 22.4209 213.938 23.3487 214.397 24.3959C214.855 25.4431 215.055 26.5603 215.055 27.7372C215.055 28.9141 214.855 30.0808 214.397 31.0682ZM212.621 25.1639C212.292 24.376 211.833 23.658 211.245 22.9997C210.656 22.3414 209.928 21.9523 209.011 21.5533C208.093 21.1544 207.176 21.0245 206.128 21.0245H202.189V34.4095H206.128C207.176 34.4095 208.163 34.2097 209.011 33.8806C209.868 33.5515 210.587 33.0928 211.245 32.5044C211.903 31.9159 212.292 31.1877 212.621 30.4098C212.95 29.6219 213.15 28.7044 213.15 27.7869C213.15 26.8693 212.95 26.0117 212.621 25.1639Z" fill="white"/>
<path d="M226.993 19.3188H225.088V36.2443H226.993V19.3188Z" fill="white"/>
<path d="M244.118 36.1845H242.213V21.0243H236.568V19.2595H249.822V21.0243H244.187L244.118 36.1845Z" fill="white"/>
<path d="M81.0687 31.5867H80.9989L74.8351 22.5403V36.1845H73V19.2595H74.9648L81.1385 28.5046L87.3022 19.2595H89.267V36.1845H87.372V22.4707L81.0687 31.5867Z" fill="white"/>
<path d="M102.133 19.2595H103.569V36.314H101.674V21.2936L98.4527 22.271L97.9939 20.6956L102.133 19.2595Z" fill="white"/>
<path d="M116.635 19.2595H118.011V36.314H116.106V21.2936L112.895 22.271L112.436 20.6956L116.635 19.2595Z" fill="white"/>
<path d="M55 3L55 53L56 53L56 3L55 3Z" fill="white"/>
<path d="M13.2326 14.5481L12.0894 18.398L4.15173 15.9287V48H0V11H2.9538L13.2326 14.5481Z" fill="white"/>
<path d="M35.8564 11H38.8015V48H34.6498V15.9287L26.7119 18.398L25.5688 14.5481L35.8564 11Z" fill="white"/>
</svg>
