<svg width="111" height="19" viewBox="0 0 111 19" fill="none" xmlns="http://www.w3.org/2000/svg">
<path d="M102.803 0.527344C105.209 0.527344 107.178 1.33984 108.709 2.96484C110.24 4.58984 111.006 6.73828 111.006 9.41016C111.006 12.082 110.24 14.2305 108.709 15.8555C107.178 17.4805 105.209 18.293 102.803 18.293C100.389 18.293 98.4121 17.4805 96.873 15.8555C95.334 14.2227 94.5645 12.0742 94.5645 9.41016C94.5645 6.73828 95.334 4.58984 96.873 2.96484C98.4121 1.33984 100.389 0.527344 102.803 0.527344ZM102.779 16.3477C104.498 16.3477 105.904 15.7383 106.998 14.5195C108.1 13.3008 108.65 11.5977 108.65 9.41016C108.65 7.22266 108.104 5.51953 107.01 4.30078C105.916 3.08203 104.521 2.47266 102.826 2.47266C101.1 2.47266 99.6816 3.08203 98.5723 4.30078C97.4707 5.51953 96.9199 7.22266 96.9199 9.41016C96.9199 11.5898 97.4707 13.293 98.5723 14.5195C99.6738 15.7383 101.076 16.3477 102.779 16.3477Z" fill="black"/>
<path d="M90.0195 2.85938H84.3359V18H82.0508V2.85938H76.4141V0.820312H90.0195V2.85938Z" fill="black"/>
<path d="M71.7305 18H58.9219V0.820312H71.332V2.85938H61.1953V8.10938H70.6758V10.1484H61.1953V15.9609H71.7305V18Z" fill="black"/>
<path d="M53.0176 18H50.5566L48.9395 13.418C48.6504 12.6055 48.1699 11.9414 47.498 11.4258C46.8262 10.9102 46.0527 10.6523 45.1777 10.6523H40.9707V18H38.6973V0.820312H46.3027C47.6309 0.820312 48.7168 0.949219 49.5605 1.20703C50.4043 1.46484 51.0918 2.00781 51.623 2.83594C52.1543 3.66406 52.4199 4.59766 52.4199 5.63672C52.4199 6.82422 52.0762 7.81641 51.3887 8.61328C50.7012 9.41016 49.7598 9.92969 48.5645 10.1719V10.2188C49.7598 10.6016 50.6699 11.6367 51.2949 13.3242L53.0176 18ZM40.9707 8.61328H46.0449C47.459 8.61328 48.4824 8.39062 49.1152 7.94531C49.7559 7.5 50.0762 6.73047 50.0762 5.63672C50.0762 3.68359 48.8496 2.70703 46.3965 2.70703H40.9707V8.61328Z" fill="black"/>
<path d="M28.6934 10.9688L25.6699 3L22.7871 10.9688H28.6934ZM33.9199 18H31.3535L29.3613 12.7734H22.166L20.2676 18H17.8652L24.4629 0.820312H26.9121L33.9199 18Z" fill="black"/>
<path d="M0.921875 0.820312H7.33203C8.73828 0.820312 9.91406 0.953125 10.8594 1.21875C11.8125 1.47656 12.5664 2.04297 13.1211 2.91797C13.6758 3.78516 13.9531 4.75781 13.9531 5.83594C13.9531 7.57031 13.4023 8.88672 12.3008 9.78516C11.1992 10.6836 9.60547 11.1328 7.51953 11.1328H3.19531V18H0.921875V0.820312ZM3.19531 9.09375H7.54297C9.00391 9.09375 10.043 8.82031 10.6602 8.27344C11.2852 7.72656 11.5977 6.9375 11.5977 5.90625C11.5977 5.21875 11.4258 4.60938 11.082 4.07812C10.7383 3.54688 10.3008 3.21094 9.76953 3.07031C9.24609 2.92969 8.48828 2.85938 7.49609 2.85938H3.19531V9.09375Z" fill="black"/>
</svg>
