<svg width="1500" height="250" viewBox="0 0 1500 250" fill="none" xmlns="http://www.w3.org/2000/svg">
<g clip-path="url(#clip0_7618_59702)">
<path d="M236 0C305.024 0 361 55.976 361 125C361 194.024 305.024 250 236 250C166.976 250 111 194.024 111 125C111 55.976 166.976 0 236 0Z" fill="#111111"/>
<path d="M201.192 136.599V113.838C201.192 112.312 202.203 111.295 203.721 111.295H224.158V88H203.114C188.646 88 176 99.2915 176 114.245V137.006C176 151.858 186.927 162 201.495 162C210.702 162 219.099 157.758 227.901 149.213L263.716 114.118C265.233 112.592 266.346 111.295 267.662 111.295C268.875 111.295 269.685 112.287 269.685 113.508V136.162C269.685 137.688 268.673 138.705 267.155 138.705H246.719V162H267.864C282.231 162 294.877 150.708 294.877 135.653V113.101C294.877 98.2488 283.95 88 269.381 88C260.276 88 251.778 92.3488 242.976 100.894L207.161 135.989C205.643 137.515 204.53 138.705 203.215 138.705C202.001 138.705 201.192 137.82 201.192 136.599Z" fill="white"/>
</g>
<path d="M473.64 189.26C465.36 189.26 457.92 187.82 451.32 184.94C444.84 181.94 439.74 177.86 436.02 172.7C432.3 167.42 430.38 161.36 430.26 154.52H447.72C448.32 160.4 450.72 165.38 454.92 169.46C459.24 173.42 465.48 175.4 473.64 175.4C481.44 175.4 487.56 173.48 492 169.64C496.56 165.68 498.84 160.64 498.84 154.52C498.84 149.72 497.52 145.82 494.88 142.82C492.24 139.82 488.94 137.54 484.98 135.98C481.02 134.42 475.68 132.74 468.96 130.94C460.68 128.78 454.02 126.62 448.98 124.46C444.06 122.3 439.8 118.94 436.2 114.38C432.72 109.7 430.98 103.46 430.98 95.66C430.98 88.82 432.72 82.76 436.2 77.48C439.68 72.2 444.54 68.12 450.78 65.24C457.14 62.36 464.4 60.92 472.56 60.92C484.32 60.92 493.92 63.86 501.36 69.74C508.92 75.62 513.18 83.42 514.14 93.14H496.14C495.54 88.34 493.02 84.14 488.58 80.54C484.14 76.82 478.26 74.96 470.94 74.96C464.1 74.96 458.52 76.76 454.2 80.36C449.88 83.84 447.72 88.76 447.72 95.12C447.72 99.68 448.98 103.4 451.5 106.28C454.14 109.16 457.32 111.38 461.04 112.94C464.88 114.38 470.22 116.06 477.06 117.98C485.34 120.26 492 122.54 497.04 124.82C502.08 126.98 506.4 130.4 510 135.08C513.6 139.64 515.4 145.88 515.4 153.8C515.4 159.92 513.78 165.68 510.54 171.08C507.3 176.48 502.5 180.86 496.14 184.22C489.78 187.58 482.28 189.26 473.64 189.26ZM626.025 89.36V188H609.645V173.42C606.525 178.46 602.145 182.42 596.505 185.3C590.985 188.06 584.865 189.44 578.145 189.44C570.465 189.44 563.565 187.88 557.445 184.76C551.325 181.52 546.465 176.72 542.865 170.36C539.385 164 537.645 156.26 537.645 147.14V89.36H553.845V144.98C553.845 154.7 556.305 162.2 561.225 167.48C566.145 172.64 572.865 175.22 581.385 175.22C590.145 175.22 597.045 172.52 602.085 167.12C607.125 161.72 609.645 153.86 609.645 143.54V89.36H626.025ZM669.101 107.54C672.341 101.9 677.141 97.22 683.501 93.5C689.981 89.66 697.481 87.74 706.001 87.74C714.761 87.74 722.681 89.84 729.761 94.04C736.961 98.24 742.601 104.18 746.681 111.86C750.761 119.42 752.801 128.24 752.801 138.32C752.801 148.28 750.761 157.16 746.681 164.96C742.601 172.76 736.961 178.82 729.761 183.14C722.681 187.46 714.761 189.62 706.001 189.62C697.601 189.62 690.161 187.76 683.681 184.04C677.321 180.2 672.461 175.46 669.101 169.82V234.8H652.721V89.36H669.101V107.54ZM736.061 138.32C736.061 130.88 734.561 124.4 731.561 118.88C728.561 113.36 724.481 109.16 719.321 106.28C714.281 103.4 708.701 101.96 702.581 101.96C696.581 101.96 691.001 103.46 685.841 106.46C680.801 109.34 676.721 113.6 673.601 119.24C670.601 124.76 669.101 131.18 669.101 138.5C669.101 145.94 670.601 152.48 673.601 158.12C676.721 163.64 680.801 167.9 685.841 170.9C691.001 173.78 696.581 175.22 702.581 175.22C708.701 175.22 714.281 173.78 719.321 170.9C724.481 167.9 728.561 163.64 731.561 158.12C734.561 152.48 736.061 145.88 736.061 138.32ZM863.402 134.9C863.402 138.02 863.222 141.32 862.862 144.8H784.022C784.622 154.52 787.922 162.14 793.922 167.66C800.042 173.06 807.422 175.76 816.062 175.76C823.142 175.76 829.022 174.14 833.702 170.9C838.502 167.54 841.862 163.1 843.782 157.58H861.422C858.782 167.06 853.502 174.8 845.582 180.8C837.662 186.68 827.822 189.62 816.062 189.62C806.702 189.62 798.302 187.52 790.862 183.32C783.542 179.12 777.782 173.18 773.582 165.5C769.382 157.7 767.282 148.7 767.282 138.5C767.282 128.3 769.322 119.36 773.402 111.68C777.482 104 783.182 98.12 790.502 94.04C797.942 89.84 806.462 87.74 816.062 87.74C825.422 87.74 833.702 89.78 840.902 93.86C848.102 97.94 853.622 103.58 857.462 110.78C861.422 117.86 863.402 125.9 863.402 134.9ZM846.482 131.48C846.482 125.24 845.102 119.9 842.342 115.46C839.582 110.9 835.802 107.48 831.002 105.2C826.322 102.8 821.102 101.6 815.342 101.6C807.062 101.6 799.982 104.24 794.102 109.52C788.342 114.8 785.042 122.12 784.202 131.48H846.482ZM900.443 105.38C903.323 99.74 907.403 95.36 912.683 92.24C918.083 89.12 924.623 87.56 932.303 87.56V104.48H927.983C909.623 104.48 900.443 114.44 900.443 134.36V188H884.063V89.36H900.443V105.38ZM985.171 189.62C977.611 189.62 970.831 188.36 964.831 185.84C958.831 183.2 954.091 179.6 950.611 175.04C947.131 170.36 945.211 165.02 944.851 159.02H961.771C962.251 163.94 964.531 167.96 968.611 171.08C972.811 174.2 978.271 175.76 984.991 175.76C991.231 175.76 996.151 174.38 999.751 171.62C1003.35 168.86 1005.15 165.38 1005.15 161.18C1005.15 156.86 1003.23 153.68 999.391 151.64C995.551 149.48 989.611 147.38 981.571 145.34C974.251 143.42 968.251 141.5 963.571 139.58C959.011 137.54 955.051 134.6 951.691 130.76C948.451 126.8 946.831 121.64 946.831 115.28C946.831 110.24 948.331 105.62 951.331 101.42C954.331 97.22 958.591 93.92 964.111 91.52C969.631 89 975.931 87.74 983.011 87.74C993.931 87.74 1002.75 90.5 1009.47 96.02C1016.19 101.54 1019.79 109.1 1020.27 118.7H1003.89C1003.53 113.54 1001.43 109.4 997.591 106.28C993.871 103.16 988.831 101.6 982.471 101.6C976.591 101.6 971.911 102.86 968.431 105.38C964.951 107.9 963.211 111.2 963.211 115.28C963.211 118.52 964.231 121.22 966.271 123.38C968.431 125.42 971.071 127.1 974.191 128.42C977.431 129.62 981.871 131 987.511 132.56C994.591 134.48 1000.35 136.4 1004.79 138.32C1009.23 140.12 1013.01 142.88 1016.13 146.6C1019.37 150.32 1021.05 155.18 1021.17 161.18C1021.17 166.58 1019.67 171.44 1016.67 175.76C1013.67 180.08 1009.41 183.5 1003.89 186.02C998.491 188.42 992.251 189.62 985.171 189.62ZM1063.31 102.86V161C1063.31 165.8 1064.33 169.22 1066.37 171.26C1068.41 173.18 1071.95 174.14 1076.99 174.14H1089.05V188H1074.29C1065.17 188 1058.33 185.9 1053.77 181.7C1049.21 177.5 1046.93 170.6 1046.93 161V102.86H1034.15V89.36H1046.93V64.52H1063.31V89.36H1089.05V102.86H1063.31ZM1101.82 138.32C1101.82 128.24 1103.86 119.42 1107.94 111.86C1112.02 104.18 1117.6 98.24 1124.68 94.04C1131.88 89.84 1139.86 87.74 1148.62 87.74C1157.26 87.74 1164.76 89.6 1171.12 93.32C1177.48 97.04 1182.22 101.72 1185.34 107.36V89.36H1201.9V188H1185.34V169.64C1182.1 175.4 1177.24 180.2 1170.76 184.04C1164.4 187.76 1156.96 189.62 1148.44 189.62C1139.68 189.62 1131.76 187.46 1124.68 183.14C1117.6 178.82 1112.02 172.76 1107.94 164.96C1103.86 157.16 1101.82 148.28 1101.82 138.32ZM1185.34 138.5C1185.34 131.06 1183.84 124.58 1180.84 119.06C1177.84 113.54 1173.76 109.34 1168.6 106.46C1163.56 103.46 1157.98 101.96 1151.86 101.96C1145.74 101.96 1140.16 103.4 1135.12 106.28C1130.08 109.16 1126.06 113.36 1123.06 118.88C1120.06 124.4 1118.56 130.88 1118.56 138.32C1118.56 145.88 1120.06 152.48 1123.06 158.12C1126.06 163.64 1130.08 167.9 1135.12 170.9C1140.16 173.78 1145.74 175.22 1151.86 175.22C1157.98 175.22 1163.56 173.78 1168.6 170.9C1173.76 167.9 1177.84 163.64 1180.84 158.12C1183.84 152.48 1185.34 145.94 1185.34 138.5ZM1248.6 102.86V161C1248.6 165.8 1249.62 169.22 1251.66 171.26C1253.7 173.18 1257.24 174.14 1262.28 174.14H1274.34V188H1259.58C1250.46 188 1243.62 185.9 1239.06 181.7C1234.5 177.5 1232.22 170.6 1232.22 161V102.86H1219.44V89.36H1232.22V64.52H1248.6V89.36H1274.34V102.86H1248.6ZM1383.23 134.9C1383.23 138.02 1383.05 141.32 1382.69 144.8H1303.85C1304.45 154.52 1307.75 162.14 1313.75 167.66C1319.87 173.06 1327.25 175.76 1335.89 175.76C1342.97 175.76 1348.85 174.14 1353.53 170.9C1358.33 167.54 1361.69 163.1 1363.61 157.58H1381.25C1378.61 167.06 1373.33 174.8 1365.41 180.8C1357.49 186.68 1347.65 189.62 1335.89 189.62C1326.53 189.62 1318.13 187.52 1310.69 183.32C1303.37 179.12 1297.61 173.18 1293.41 165.5C1289.21 157.7 1287.11 148.7 1287.11 138.5C1287.11 128.3 1289.15 119.36 1293.23 111.68C1297.31 104 1303.01 98.12 1310.33 94.04C1317.77 89.84 1326.29 87.74 1335.89 87.74C1345.25 87.74 1353.53 89.78 1360.73 93.86C1367.93 97.94 1373.45 103.58 1377.29 110.78C1381.25 117.86 1383.23 125.9 1383.23 134.9ZM1366.31 131.48C1366.31 125.24 1364.93 119.9 1362.17 115.46C1359.41 110.9 1355.63 107.48 1350.83 105.2C1346.15 102.8 1340.93 101.6 1335.17 101.6C1326.89 101.6 1319.81 104.24 1313.93 109.52C1308.17 114.8 1304.87 122.12 1304.03 131.48H1366.31Z" fill="#242926"/>
<defs>
<clipPath id="clip0_7618_59702">
<rect width="250" height="250" fill="white" transform="translate(110)"/>
</clipPath>
</defs>
</svg>
